<svg width="20" height="20" viewBox="0 0 20 20" fill="none" xmlns="http://www.w3.org/2000/svg">
<g clip-path="url(#clip0_436_101)">
<path fill-rule="evenodd" clip-rule="evenodd" d="M15.8333 1.66675C16.1023 2.91932 17.0807 3.89777 18.3333 4.16675C17.0807 4.43572 16.1023 5.41418 15.8333 6.66675C15.5643 5.41418 14.5859 4.43572 13.3333 4.16675C14.5859 3.89777 15.5643 2.91932 15.8333 1.66675ZM7.56 1.83342C8.31958 5.37068 11.0827 8.13383 14.62 8.89342C11.0827 9.653 8.31958 12.4162 7.56 15.9534C6.80042 12.4162 4.03726 9.653 0.5 8.89342C4.03726 8.13383 6.80042 5.37068 7.56 1.83342ZM18.3333 15.0001C16.6632 14.6414 15.3586 13.3368 15 11.6667C14.6413 13.3368 13.3367 14.6414 11.6666 15.0001C13.3367 15.3587 14.6413 16.6633 15 18.3334C15.3586 16.6633 16.6632 15.3587 18.3333 15.0001Z" fill="#387FF5"/>
</g>
<defs>
<clipPath id="clip0_436_101">
<rect width="20" height="20" fill="white"/>
</clipPath>
</defs>
</svg>
