<svg width="139" height="25" viewBox="0 0 139 25" fill="none" xmlns="http://www.w3.org/2000/svg">
<g clip-path="url(#clip0_436_104)">
<g clip-path="url(#clip1_436_104)">
<path d="M11.0489 3.42705C11.3483 2.50574 12.6517 2.50574 12.9511 3.42705L14.4697 8.10081C14.6035 8.51284 14.9875 8.7918 15.4207 8.7918H20.335C21.3037 8.7918 21.7065 10.0314 20.9228 10.6008L16.947 13.4894C16.5966 13.744 16.4499 14.1954 16.5838 14.6074L18.1024 19.2812C18.4017 20.2025 17.3472 20.9686 16.5635 20.3992L12.5878 17.5106C12.2373 17.256 11.7627 17.256 11.4122 17.5106L7.43648 20.3992C6.65276 20.9686 5.59828 20.2025 5.89763 19.2812L7.41623 14.6074C7.55011 14.1954 7.40345 13.744 7.05296 13.4894L3.07722 10.6008C2.29351 10.0314 2.69628 8.7918 3.66501 8.7918H8.57929C9.01252 8.7918 9.39647 8.51284 9.53035 8.10081L11.0489 3.42705Z" fill="#D1D1D1"/>
<path d="M39.0489 3.42705C39.3483 2.50574 40.6517 2.50574 40.9511 3.42705L42.4697 8.10081C42.6035 8.51284 42.9875 8.7918 43.4207 8.7918H48.335C49.3037 8.7918 49.7065 10.0314 48.9228 10.6008L44.947 13.4894C44.5966 13.744 44.4499 14.1954 44.5838 14.6074L46.1024 19.2812C46.4017 20.2025 45.3472 20.9686 44.5635 20.3992L40.5878 17.5106C40.2373 17.256 39.7627 17.256 39.4122 17.5106L35.4365 20.3992C34.6528 20.9686 33.5983 20.2025 33.8976 19.2812L35.4162 14.6074C35.5501 14.1954 35.4034 13.744 35.053 13.4894L31.0772 10.6008C30.2935 10.0314 30.6963 8.7918 31.665 8.7918H36.5793C37.0125 8.7918 37.3965 8.51284 37.5303 8.10081L39.0489 3.42705Z" fill="#D1D1D1"/>
<path d="M67.0489 3.42705C67.3483 2.50574 68.6517 2.50574 68.9511 3.42705L70.4697 8.10081C70.6035 8.51284 70.9875 8.7918 71.4207 8.7918H76.335C77.3037 8.7918 77.7065 10.0314 76.9228 10.6008L72.947 13.4894C72.5966 13.744 72.4499 14.1954 72.5838 14.6074L74.1024 19.2812C74.4017 20.2025 73.3472 20.9686 72.5635 20.3992L68.5878 17.5106C68.2373 17.256 67.7627 17.256 67.4122 17.5106L63.4365 20.3992C62.6528 20.9686 61.5983 20.2025 61.8976 19.2812L63.4162 14.6074C63.5501 14.1954 63.4034 13.744 63.053 13.4894L59.0772 10.6008C58.2935 10.0314 58.6963 8.7918 59.665 8.7918H64.5793C65.0125 8.7918 65.3965 8.51284 65.5303 8.10081L67.0489 3.42705Z" fill="#D1D1D1"/>
<path d="M95.0489 3.42705C95.3483 2.50574 96.6517 2.50574 96.9511 3.42705L98.4697 8.10081C98.6035 8.51284 98.9875 8.7918 99.4207 8.7918H104.335C105.304 8.7918 105.706 10.0314 104.923 10.6008L100.947 13.4894C100.597 13.744 100.45 14.1954 100.584 14.6074L102.102 19.2812C102.402 20.2025 101.347 20.9686 100.564 20.3992L96.5878 17.5106C96.2373 17.256 95.7627 17.256 95.4122 17.5106L91.4365 20.3992C90.6528 20.9686 89.5983 20.2025 89.8976 19.2812L91.4162 14.6074C91.5501 14.1954 91.4034 13.744 91.053 13.4894L87.0772 10.6008C86.2935 10.0314 86.6963 8.7918 87.665 8.7918H92.5793C93.0125 8.7918 93.3965 8.51284 93.5303 8.10081L95.0489 3.42705Z" fill="#D1D1D1"/>
<path d="M123.049 3.42705C123.348 2.50574 124.652 2.50574 124.951 3.42705L126.47 8.10081C126.604 8.51284 126.987 8.7918 127.421 8.7918H132.335C133.304 8.7918 133.706 10.0314 132.923 10.6008L128.947 13.4894C128.597 13.744 128.45 14.1954 128.584 14.6074L130.102 19.2812C130.402 20.2025 129.347 20.9686 128.564 20.3992L124.588 17.5106C124.237 17.256 123.763 17.256 123.412 17.5106L119.436 20.3992C118.653 20.9686 117.598 20.2025 117.898 19.2812L119.416 14.6074C119.55 14.1954 119.403 13.744 119.053 13.4894L115.077 10.6008C114.294 10.0314 114.696 8.7918 115.665 8.7918H120.579C121.013 8.7918 121.396 8.51284 121.53 8.10081L123.049 3.42705Z" fill="#D1D1D1"/>
</g>
<g clip-path="url(#clip2_436_104)">
<path d="M11.0489 3.42705C11.3483 2.50574 12.6517 2.50574 12.9511 3.42705L14.4697 8.10081C14.6035 8.51284 14.9875 8.7918 15.4207 8.7918H20.335C21.3037 8.7918 21.7065 10.0314 20.9228 10.6008L16.947 13.4894C16.5966 13.744 16.4499 14.1954 16.5838 14.6074L18.1024 19.2812C18.4017 20.2025 17.3472 20.9686 16.5635 20.3992L12.5878 17.5106C12.2373 17.256 11.7627 17.256 11.4122 17.5106L7.43648 20.3992C6.65276 20.9686 5.59828 20.2025 5.89763 19.2812L7.41623 14.6074C7.55011 14.1954 7.40345 13.744 7.05296 13.4894L3.07722 10.6008C2.29351 10.0314 2.69628 8.7918 3.66501 8.7918H8.57929C9.01252 8.7918 9.39647 8.51284 9.53035 8.10081L11.0489 3.42705Z" fill="#FFC327"/>
<path d="M39.0489 3.42705C39.3483 2.50574 40.6517 2.50574 40.9511 3.42705L42.4697 8.10081C42.6035 8.51284 42.9875 8.7918 43.4207 8.7918H48.335C49.3037 8.7918 49.7065 10.0314 48.9228 10.6008L44.947 13.4894C44.5966 13.744 44.4499 14.1954 44.5838 14.6074L46.1024 19.2812C46.4017 20.2025 45.3472 20.9686 44.5635 20.3992L40.5878 17.5106C40.2373 17.256 39.7627 17.256 39.4122 17.5106L35.4365 20.3992C34.6528 20.9686 33.5983 20.2025 33.8976 19.2812L35.4162 14.6074C35.5501 14.1954 35.4034 13.744 35.053 13.4894L31.0772 10.6008C30.2935 10.0314 30.6963 8.7918 31.665 8.7918H36.5793C37.0125 8.7918 37.3965 8.51284 37.5303 8.10081L39.0489 3.42705Z" fill="#FFC327"/>
<path d="M67.0489 3.42705C67.3483 2.50574 68.6517 2.50574 68.9511 3.42705L70.4697 8.10081C70.6035 8.51284 70.9875 8.7918 71.4207 8.7918H76.335C77.3037 8.7918 77.7065 10.0314 76.9228 10.6008L72.947 13.4894C72.5966 13.744 72.4499 14.1954 72.5838 14.6074L74.1024 19.2812C74.4017 20.2025 73.3472 20.9686 72.5635 20.3992L68.5878 17.5106C68.2373 17.256 67.7627 17.256 67.4122 17.5106L63.4365 20.3992C62.6528 20.9686 61.5983 20.2025 61.8976 19.2812L63.4162 14.6074C63.5501 14.1954 63.4034 13.744 63.053 13.4894L59.0772 10.6008C58.2935 10.0314 58.6963 8.7918 59.665 8.7918H64.5793C65.0125 8.7918 65.3965 8.51284 65.5303 8.10081L67.0489 3.42705Z" fill="#FFC327"/>
<path d="M95.0489 3.42705C95.3483 2.50574 96.6517 2.50574 96.9511 3.42705L98.4697 8.10081C98.6035 8.51284 98.9875 8.7918 99.4207 8.7918H104.335C105.304 8.7918 105.706 10.0314 104.923 10.6008L100.947 13.4894C100.597 13.744 100.45 14.1954 100.584 14.6074L102.102 19.2812C102.402 20.2025 101.347 20.9686 100.564 20.3992L96.5878 17.5106C96.2373 17.256 95.7627 17.256 95.4122 17.5106L91.4365 20.3992C90.6528 20.9686 89.5983 20.2025 89.8976 19.2812L91.4162 14.6074C91.5501 14.1954 91.4034 13.744 91.053 13.4894L87.0772 10.6008C86.2935 10.0314 86.6963 8.7918 87.665 8.7918H92.5793C93.0125 8.7918 93.3965 8.51284 93.5303 8.10081L95.0489 3.42705Z" fill="#FFC327"/>
<path d="M123.049 3.42705C123.348 2.50574 124.652 2.50574 124.951 3.42705L126.47 8.10081C126.604 8.51284 126.987 8.7918 127.421 8.7918H132.335C133.304 8.7918 133.706 10.0314 132.923 10.6008L128.947 13.4894C128.597 13.744 128.45 14.1954 128.584 14.6074L130.102 19.2812C130.402 20.2025 129.347 20.9686 128.564 20.3992L124.588 17.5106C124.237 17.256 123.763 17.256 123.412 17.5106L119.436 20.3992C118.653 20.9686 117.598 20.2025 117.898 19.2812L119.416 14.6074C119.55 14.1954 119.403 13.744 119.053 13.4894L115.077 10.6008C114.294 10.0314 114.696 8.7918 115.665 8.7918H120.579C121.013 8.7918 121.396 8.51284 121.53 8.10081L123.049 3.42705Z" fill="#FFC327"/>
</g>
</g>
<defs>
<clipPath id="clip0_436_104">
<rect width="139" height="24" fill="white" transform="translate(0 0.5)"/>
</clipPath>
<clipPath id="clip1_436_104">
<rect width="139" height="24" fill="white" transform="translate(0 0.5)"/>
</clipPath>
<clipPath id="clip2_436_104">
<rect width="125" height="24" fill="white" transform="translate(0 0.5)"/>
</clipPath>
</defs>
</svg>
