<svg width="16" height="16" viewBox="0 0 16 16" fill="none" xmlns="http://www.w3.org/2000/svg">
<g id="today_FILL0_wght300_GRAD0_opsz24 1">
<path id="Vector" d="M6.00015 10.7052C5.57195 10.7052 5.20848 10.5558 4.90976 10.2571C4.61105 9.95839 4.4617 9.59493 4.4617 9.16673C4.4617 8.73853 4.61105 8.37507 4.90976 8.07636C5.20848 7.77764 5.57195 7.62828 6.00015 7.62828C6.42835 7.62828 6.79181 7.77764 7.09053 8.07636C7.38924 8.37507 7.5386 8.73853 7.5386 9.16673C7.5386 9.59493 7.38924 9.95839 7.09053 10.2571C6.79181 10.5558 6.42835 10.7052 6.00015 10.7052ZM3.53863 14.3334C3.20187 14.3334 2.91683 14.2167 2.6835 13.9834C2.45016 13.7501 2.3335 13.465 2.3335 13.1283V4.20523C2.3335 3.86847 2.45016 3.58343 2.6835 3.35009C2.91683 3.11676 3.20187 3.00009 3.53863 3.00009H4.46171V1.58984H5.48733V3.00009H10.5386V1.58984H11.5386V3.00009H12.4617C12.7984 3.00009 13.0835 3.11676 13.3168 3.35009C13.5501 3.58343 13.6668 3.86847 13.6668 4.20523V13.1283C13.6668 13.465 13.5501 13.7501 13.3168 13.9834C13.0835 14.2167 12.7984 14.3334 12.4617 14.3334H3.53863ZM3.53863 13.3334H12.4617C12.513 13.3334 12.56 13.312 12.6027 13.2693C12.6454 13.2266 12.6668 13.1795 12.6668 13.1283V6.87189H3.33348V13.1283C3.33348 13.1795 3.35485 13.2266 3.39758 13.2693C3.44032 13.312 3.48734 13.3334 3.53863 13.3334ZM3.33348 5.87191H12.6668V4.20523C12.6668 4.15394 12.6454 4.10692 12.6027 4.06418C12.56 4.02144 12.513 4.00008 12.4617 4.00008H3.53863C3.48734 4.00008 3.44032 4.02144 3.39758 4.06418C3.35485 4.10692 3.33348 4.15394 3.33348 4.20523V5.87191Z" fill="#4B5162"/>
</g>
</svg>
