<svg width="16" height="16" viewBox="0 0 16 16" fill="none" xmlns="http://www.w3.org/2000/svg">
<g id="credit_card_FILL0_wght300_GRAD0_opsz24 1">
<path id="Vector" d="M14.3331 4.20513V11.7948C14.3331 12.1316 14.2165 12.4166 13.9831 12.65C13.7498 12.8833 13.4648 13 13.128 13H2.87164C2.53488 13 2.24984 12.8833 2.0165 12.65C1.78317 12.4166 1.6665 12.1316 1.6665 11.7948V4.20513C1.6665 3.86838 1.78317 3.58333 2.0165 3.35C2.24984 3.11667 2.53488 3 2.87164 3H13.128C13.4648 3 13.7498 3.11667 13.9831 3.35C14.2165 3.58333 14.3331 3.86838 14.3331 4.20513ZM2.66649 5.60257H13.3332V4.20513C13.3332 4.15385 13.3118 4.10683 13.2691 4.06408C13.2263 4.02135 13.1793 3.99998 13.128 3.99998H2.87164C2.82035 3.99998 2.77333 4.02135 2.73059 4.06408C2.68785 4.10683 2.66649 4.15385 2.66649 4.20513V5.60257ZM2.66649 7.73073V11.7948C2.66649 11.8461 2.68785 11.8931 2.73059 11.9359C2.77333 11.9786 2.82035 12 2.87164 12H13.128C13.1793 12 13.2263 11.9786 13.2691 11.9359C13.3118 11.8931 13.3332 11.8461 13.3332 11.7948V7.73073H2.66649Z" fill="#4B5162"/>
</g>
</svg>
