<svg width="82" height="82" viewBox="0 0 82 82" fill="none" xmlns="http://www.w3.org/2000/svg">
<path d="M41.0004 0.399902C18.5809 0.399902 0.400391 18.5804 0.400391 40.9999C0.400391 63.4194 18.5809 81.5999 41.0004 81.5999C63.4199 81.5999 81.6004 63.4194 81.6004 40.9999C81.6004 18.5804 63.4199 0.399902 41.0004 0.399902Z" fill="#56B48C"/>
<path d="M46.0241 24.1938C45.517 23.5389 44.8298 23.2119 43.9781 23.2119C43.2252 23.2119 42.7181 23.3588 42.4401 23.6368C42.1621 23.9315 41.5894 24.6843 40.6887 25.9442C39.789 27.1885 38.7748 28.3173 37.6128 29.3325C36.4507 30.3467 34.9128 31.2963 32.9812 32.2126C31.689 32.8176 30.7883 33.3091 30.2646 33.7016C29.7575 34.0775 29.4961 34.6835 29.4961 35.501C29.4961 36.2049 29.7575 36.8265 30.2812 37.3669C30.805 37.9073 31.3943 38.1687 32.0649 38.1687C33.4727 38.1687 36.205 36.6141 40.2638 33.4882V55.3027C40.2638 56.5783 40.5585 57.5445 41.1469 58.1985C41.7362 58.8534 42.5223 59.1804 43.5042 59.1804C45.6961 59.1804 46.7926 57.5768 46.7926 54.3697V26.9105C46.7926 25.7651 46.5312 24.8478 46.0241 24.1938Z" fill="white"/>
</svg>
