<svg width="82" height="82" viewBox="0 0 82 82" fill="none" xmlns="http://www.w3.org/2000/svg">
<path d="M41.0004 0.399902C18.5809 0.399902 0.400391 18.5804 0.400391 40.9999C0.400391 63.4194 18.5809 81.5999 41.0004 81.5999C63.4199 81.5999 81.6004 63.4194 81.6004 40.9999C81.6004 18.5804 63.4199 0.399902 41.0004 0.399902Z" fill="#56B48C"/>
<path d="M52.7339 53.6824C52.0799 53.1753 51.1303 52.913 49.887 52.913H37.3679C37.7605 52.308 38.153 51.7842 38.5466 51.3583C39.4463 50.2785 41.0988 48.7406 43.4884 46.7768C45.8938 44.8129 47.6119 43.3729 48.6271 42.4565C49.6413 41.5402 50.6555 40.2636 51.6374 38.6434C52.6193 37.0232 53.1108 35.2229 53.1108 33.2434C53.1108 31.9835 52.8817 30.7558 52.4069 29.5938C51.9321 28.4161 51.2781 27.3843 50.4264 26.4846C49.5757 25.5849 48.5938 24.881 47.4807 24.3739C45.7626 23.6044 43.6686 23.2285 41.2299 23.2285C39.2005 23.2285 37.4335 23.5222 35.9278 24.1282C34.4222 24.7332 33.1789 25.5193 32.1803 26.4846C31.1984 27.4665 30.4622 28.5463 29.9717 29.7406C29.4803 30.936 29.2346 32.098 29.2346 33.1945C29.2346 34.1108 29.4969 34.8303 30.0207 35.3541C30.5444 35.8778 31.215 36.1392 32.0168 36.1392C32.9331 36.1392 33.6204 35.8455 34.0952 35.2719C34.57 34.6992 34.9949 33.8817 35.3718 32.8009C35.7477 31.7378 36.0101 31.0828 36.1735 30.8371C37.3679 29.0045 39.0204 28.0881 41.1154 28.0881C42.114 28.0881 43.0136 28.3172 43.8644 28.7597C44.6994 29.2012 45.37 29.8395 45.8615 30.6413C46.3519 31.4431 46.5977 32.3594 46.5977 33.3903C46.5977 34.3399 46.3686 35.2885 45.9104 36.287C45.4523 37.2846 44.7973 38.2342 43.9133 39.1672C43.0459 40.1002 41.9505 41.0321 40.6406 41.9651C39.9044 42.4565 38.6768 43.504 36.9753 45.0743C35.2572 46.6456 33.3423 48.5438 31.215 50.7367C30.7079 51.2771 30.2331 52.0289 29.8073 52.9785C29.3824 53.9282 29.1533 54.6966 29.1533 55.2693C29.1533 56.17 29.4969 56.9385 30.1675 57.6101C30.8381 58.2807 31.7711 58.6077 32.9664 58.6077H50.6066C51.6541 58.6077 52.4558 58.3296 52.9629 57.7892C53.4867 57.2498 53.7491 56.5782 53.7491 55.7931C53.7158 54.8934 53.3888 54.1895 52.7339 53.6824Z" fill="white"/>
</svg>
