<svg width="144" height="166" viewBox="0 0 144 166" fill="none" xmlns="http://www.w3.org/2000/svg">
<mask id="mask0_135_7900" style="mask-type:luminance" maskUnits="userSpaceOnUse" x="71" y="103" width="73" height="63">
<path d="M71.957 103.824H143.994V165.274H71.957V103.824Z" fill="white"/>
</mask>
<g mask="url(#mask0_135_7900)">
<path fill-rule="evenodd" clip-rule="evenodd" d="M72.0342 165.273V146.485H72.1016L143.997 104.163V122.878L72.1016 165.273H72.0342Z" fill="#5FBBEC"/>
</g>
<mask id="mask1_135_7900" style="mask-type:luminance" maskUnits="userSpaceOnUse" x="0" y="8" width="122" height="158">
<path d="M0 8.85449H121.819V165.271H0V8.85449Z" fill="white"/>
</mask>
<g mask="url(#mask1_135_7900)">
<path fill-rule="evenodd" clip-rule="evenodd" d="M40.8002 79.9781L39.1477 94.1541C35.7912 91.6625 33.008 88.3 30.7981 84.0765C28.5445 79.8095 27.4197 75.7546 27.4197 71.914L40.8002 79.9781ZM22.0893 91.9938L22.8828 92.4282V91.6347C22.8828 91.4443 22.9562 91.3252 23.101 91.2737C23.2419 91.1785 23.3887 91.1785 23.5295 91.2737C23.7259 91.4205 23.8668 91.5891 23.962 91.7815C24.1088 92.0216 24.1802 92.2358 24.1802 92.4282V93.2197L29.8657 96.606V95.8125C29.8657 95.6221 29.9093 95.4971 30.0045 95.4535C30.1513 95.3563 30.2981 95.3563 30.439 95.4535C30.6294 95.5487 30.7981 95.7173 30.9449 95.9534C31.0857 96.1954 31.1571 96.4077 31.1571 96.606V97.3936L36.7752 100.778V99.9844C36.7752 99.794 36.8426 99.6472 36.9874 99.5519C37.0846 99.4567 37.2294 99.4845 37.4219 99.6254C37.6123 99.7206 37.7591 99.8674 37.8543 100.058C37.9952 100.3 38.0666 100.514 38.0666 100.705V101.498L43.7521 104.882V104.091C43.7521 103.898 43.8017 103.775 43.8969 103.73C44.0377 103.635 44.2064 103.656 44.3988 103.803C44.5436 103.849 44.6904 103.994 44.8313 104.23C44.9265 104.428 44.9781 104.618 44.9781 104.809V105.602L50.735 109.056V108.189C50.735 107.999 50.7786 107.88 50.8738 107.83C51.0206 107.785 51.1674 107.806 51.3083 107.904C51.4531 107.999 51.5939 108.167 51.7407 108.409C51.8875 108.6 51.955 108.79 51.955 108.983V109.774L57.6444 113.161V112.367C57.6444 112.177 57.6881 112.052 57.7853 112.008C57.9301 111.956 58.0709 111.984 58.2177 112.081C58.4082 112.177 58.5768 112.318 58.7236 112.508C58.8645 112.75 58.9379 112.964 58.9379 113.161V113.948L64.548 117.332V110.929L63.4688 110.282C63.3279 110.185 63.1811 110.016 63.0403 109.774C62.8955 109.584 62.8221 109.393 62.8221 109.201C62.8221 108.959 62.8955 108.814 63.0403 108.769C63.1811 108.719 63.3279 108.747 63.4688 108.842L64.548 109.489V103.01L63.4688 102.363C63.3279 102.268 63.1811 102.099 63.0403 101.857C62.8955 101.667 62.8221 101.476 62.8221 101.284C62.8221 101.042 62.8955 100.897 63.0403 100.851C63.1811 100.8 63.3279 100.829 63.4688 100.925L64.548 101.571V95.0924L63.4688 94.4457C63.3279 94.3505 63.1811 94.1819 63.0403 93.9399C62.8955 93.7494 62.8221 93.557 62.8221 93.3665C62.8221 93.1702 62.8955 93.0293 63.0403 92.9341C63.1811 92.8825 63.3279 92.9103 63.4688 93.0075L64.548 93.6542V87.1752L63.4688 86.5285C63.3279 86.4333 63.1811 86.2646 63.0403 86.0226C62.8955 85.8322 62.8221 85.6398 62.8221 85.4493C62.8221 85.2529 62.8955 85.1121 63.0403 85.0169C63.1811 84.9653 63.3279 84.993 63.4688 85.0883L64.548 85.735V79.258L63.4688 78.6113C63.3279 78.5101 63.1811 78.3692 63.0403 78.1788C62.8955 77.9368 62.8221 77.7225 62.8221 77.5321C62.8221 77.3397 62.8955 77.1948 63.0403 77.0976C63.1811 77.048 63.3279 77.0699 63.4688 77.171L64.548 77.8911V71.4121L63.4688 70.7615C63.3279 70.6643 63.1811 70.5016 63.0403 70.2596C62.8955 70.0195 62.8221 69.8271 62.8221 69.6803C62.8221 69.4899 62.8955 69.349 63.0403 69.2538C63.1811 69.2022 63.3279 69.226 63.4688 69.3213L64.548 69.9739V69.0336C64.548 68.8432 64.6214 68.7023 64.7662 68.6011C64.8634 68.5555 65.0082 68.5793 65.2006 68.6745C65.3911 68.7698 65.5319 68.9384 65.6271 69.1804C65.7283 69.3728 65.7739 69.5633 65.7739 69.7537V118.053L68.2913 119.566C68.4838 119.661 68.6286 119.83 68.7258 120.066C68.8646 120.263 68.938 120.453 68.938 120.645C68.938 120.836 68.8646 120.983 68.7258 121.078C68.6286 121.123 68.4838 121.1 68.2913 121.004L65.7739 119.566V122.73C65.7739 122.923 65.7283 123.07 65.6271 123.165C65.5319 123.26 65.3911 123.26 65.2006 123.165C65.0082 123.018 64.8634 122.828 64.7662 122.586C64.6214 122.393 64.548 122.203 64.548 122.012V118.846L22.0893 93.434C21.8989 93.3388 21.758 93.1702 21.6628 92.9341C21.516 92.7417 21.4426 92.5234 21.4426 92.2874C21.4426 92.089 21.516 91.972 21.6628 91.9263C21.758 91.8311 21.8989 91.8529 22.0893 91.9938ZM70.9575 57.9503C71.0984 58.0475 71.1698 58.1645 71.1698 58.3113C71.1698 58.4561 71.1261 58.5752 71.025 58.6704C70.7889 58.8172 70.5469 58.8846 70.3049 58.8846C70.1144 58.839 69.922 58.7656 69.7316 58.6704L27.0586 35.9245L24.5412 37.5095C24.4559 37.567 24.3607 37.6007 24.2476 37.6166C24.1584 37.6107 24.0631 37.6007 23.962 37.5829C23.6743 37.6285 23.4323 37.6067 23.2419 37.5095C23.0514 37.4143 22.978 37.2913 23.0276 37.1504C23.0276 37.0711 23.0514 37.0036 23.101 36.9302C23.1288 36.8806 23.1744 36.835 23.2419 36.7914L25.8347 35.2778L22.9562 33.7661C22.7638 33.6689 22.6686 33.5737 22.6686 33.4785C22.617 33.3317 22.7142 33.2146 22.9562 33.1194C23.0514 32.9726 23.22 32.927 23.4621 32.9726C23.7477 32.927 23.9897 32.9508 24.1802 33.046L26.9872 34.5576L69.2991 9.00666C69.5411 8.90946 69.7534 8.85986 69.9458 8.85986C70.1858 8.85986 70.406 8.90946 70.5965 9.00666C70.7889 9.10188 70.8841 9.1971 70.8841 9.29233C70.8841 9.43912 70.7889 9.57997 70.5965 9.72479L69.805 10.2326L70.4517 10.5917C70.6421 10.681 70.7373 10.7821 70.7373 10.8793C70.7373 11.0182 70.6639 11.1432 70.5251 11.2384C70.3326 11.3336 70.1144 11.4011 69.8784 11.4527C69.5848 11.4527 69.3725 11.4011 69.2257 11.3118L68.5056 10.9508L62.8955 14.3311L63.6136 14.6902C63.7604 14.7874 63.8279 14.9322 63.8279 15.1246C63.8279 15.2198 63.7604 15.3151 63.6136 15.4103C63.4232 15.5571 63.1811 15.6305 62.8955 15.6305C62.7031 15.6305 62.5126 15.5789 62.3222 15.4837L61.6695 15.1246L55.986 18.5089L56.7041 18.9374C56.8509 18.987 56.9243 19.0822 56.9243 19.229C56.97 19.4195 56.8727 19.5603 56.6327 19.6555C56.4403 19.7567 56.2498 19.8023 56.0574 19.8023C55.7718 19.7567 55.5516 19.7071 55.4127 19.6555L54.6926 19.229L49.0765 22.6808L49.7272 23.0418C49.9196 23.1371 49.993 23.2561 49.9414 23.4009C49.993 23.5933 49.9196 23.7382 49.7272 23.8354C49.5824 23.9306 49.39 23.9742 49.1479 23.9742C48.8623 23.9306 48.6203 23.879 48.4298 23.8354L47.7097 23.4009L42.0996 26.8547L42.7443 27.2137C42.9368 27.3149 43.032 27.4339 43.032 27.5748C43.0816 27.7196 43.0102 27.8664 42.8177 28.0072C42.6729 28.1024 42.4587 28.154 42.171 28.154C41.929 28.154 41.7386 28.1243 41.5918 28.0806L40.8736 27.6462L35.1881 31.0325L35.9082 31.3915C36.055 31.4887 36.1225 31.6336 36.1225 31.826C36.1721 31.9649 36.0769 32.0621 35.8349 32.1117C35.696 32.2525 35.5036 32.3041 35.2615 32.2525C35.0195 32.3041 34.8073 32.2803 34.6148 32.185L33.9642 31.826L28.3521 35.2043L34.0356 38.2296L35.0433 37.5829C35.1881 37.4817 35.4024 37.4599 35.696 37.5095C35.9321 37.4599 36.1503 37.4817 36.3407 37.5829C36.5331 37.6781 36.6065 37.7971 36.555 37.9439C36.5093 38.0848 36.4379 38.2018 36.3407 38.303L35.2615 38.9497L41.0184 41.969L42.0262 41.3223C42.171 41.2271 42.3853 41.1815 42.6729 41.1815C42.9129 41.1319 43.1272 41.1537 43.3176 41.2489C43.516 41.3501 43.5835 41.4909 43.5378 41.6833C43.5378 41.7786 43.4644 41.8738 43.3176 41.969L42.2385 42.6217L47.9279 45.7144L49.0091 45.0677C49.1479 44.9724 49.3681 44.9209 49.6538 44.9209C49.8958 44.8772 50.1101 44.899 50.3005 44.9943C50.4473 45.0915 50.5148 45.2363 50.5148 45.4287C50.5148 45.5239 50.4473 45.6192 50.3005 45.7144L49.2213 46.3611L54.9048 49.3863L55.986 48.7396C56.1308 48.6385 56.3232 48.5948 56.5653 48.5948C56.8509 48.5948 57.0929 48.6385 57.2834 48.7396C57.4242 48.8348 57.4976 48.9539 57.4976 49.1007C57.452 49.2395 57.3508 49.3586 57.21 49.4597L56.2042 50.1064L61.8877 53.1257L62.9689 52.479C63.1077 52.3838 63.3279 52.3382 63.6136 52.3382C63.8556 52.2886 64.0699 52.3104 64.2603 52.4056C64.4071 52.5068 64.4805 52.6477 64.4805 52.8401C64.4289 52.9353 64.3337 53.0305 64.1889 53.1257L63.1811 53.7784L68.8646 56.7977L69.8784 56.151C70.0172 56.0558 70.2374 56.0062 70.5251 56.0062C70.8107 56.0062 71.025 56.0558 71.1698 56.151C71.3622 56.2462 71.4574 56.3652 71.4574 56.512C71.4118 56.6569 71.3166 56.7759 71.1698 56.8711L70.0906 57.5178L70.9575 57.9503ZM95.7844 94.0867L88.8016 98.2585V87.3894L95.7844 83.2156V94.0867ZM72.0367 146.484V165.272L0 122.877V104.162L72.0367 146.484ZM111.256 86.2369V66.8019L118.233 62.63V82.063L111.256 86.2369ZM120.826 91.4939C121.016 91.3986 121.163 91.3709 121.258 91.4205C121.399 91.472 121.472 91.5891 121.472 91.7815C121.472 92.0216 121.399 92.2358 121.258 92.4282C121.163 92.6683 121.016 92.8369 120.826 92.9341L78.3669 118.34V121.506C78.3669 121.703 78.2935 121.915 78.1527 122.157C78.0079 122.393 77.8611 122.562 77.7202 122.659C77.5298 122.754 77.383 122.754 77.2877 122.659C77.1409 122.613 77.0735 122.49 77.0735 122.298V119.058L74.6235 120.572C74.4371 120.622 74.2903 120.622 74.195 120.572C74.0482 120.52 73.9768 120.382 73.9768 120.14C73.9768 119.947 74.0482 119.757 74.195 119.566C74.2903 119.324 74.4371 119.156 74.6235 119.058L77.0735 117.62V69.2538C77.0735 69.0634 77.1409 68.865 77.2877 68.6745C77.383 68.4325 77.5298 68.2699 77.7202 68.1746C77.8611 68.0735 78.0079 68.0735 78.1527 68.1746C78.2935 68.2183 78.3669 68.3433 78.3669 68.5337V69.4681L79.4461 68.8213C79.5929 68.7261 79.7337 68.7261 79.8785 68.8213C79.9758 68.865 80.0194 68.9622 80.0194 69.107C80.0194 69.2994 79.9758 69.5415 79.8785 69.8271C79.7337 70.0195 79.5929 70.1644 79.4461 70.2596L78.3669 70.9063V77.3853L79.4461 76.6652C79.5929 76.57 79.7337 76.57 79.8785 76.6652C79.9758 76.7108 80.0194 76.8338 80.0194 77.0242C80.0194 77.2167 79.9758 77.4309 79.8785 77.6709C79.7337 77.8634 79.5929 78.0102 79.4461 78.1054L78.3669 78.7521V85.2291L79.4461 84.5824C79.5929 84.4872 79.7337 84.4872 79.8785 84.5824C79.9758 84.634 80.0194 84.751 80.0194 84.9435C80.0194 85.1339 79.9758 85.3541 79.8785 85.5902C79.7337 85.7806 79.5929 85.9274 79.4461 86.0226L78.3669 86.6693V93.1463L79.4461 92.4996C79.5929 92.4044 79.7337 92.4044 79.8785 92.4996C79.9758 92.5512 80.0194 92.6683 80.0194 92.8607C80.0194 93.0511 79.9758 93.2713 79.8785 93.5074C79.7337 93.6978 79.5929 93.8446 79.4461 93.9399L78.3669 94.5866V101.066L79.4461 100.419C79.5929 100.322 79.7337 100.322 79.8785 100.419C79.9758 100.419 80.0194 100.536 80.0194 100.778C80.0194 100.968 79.9758 101.189 79.8785 101.425C79.7337 101.615 79.5929 101.762 79.4461 101.857L78.3669 102.504V108.983L79.4461 108.336C79.5929 108.241 79.7337 108.217 79.8785 108.263C79.9758 108.312 80.0194 108.453 80.0194 108.695C80.0194 108.888 79.9758 109.078 79.8785 109.268C79.7337 109.51 79.5929 109.679 79.4461 109.774L78.3669 110.421V116.827L83.977 113.446V112.655C83.977 112.462 84.0504 112.244 84.1972 112.008C84.2924 111.816 84.4333 111.671 84.6297 111.576C84.8221 111.478 84.9907 111.457 85.1296 111.502C85.2308 111.597 85.2764 111.72 85.2764 111.861V112.728L90.9599 109.342V108.548C90.9599 108.358 91.0333 108.144 91.1741 107.904C91.2694 107.666 91.4162 107.497 91.6066 107.402C91.7534 107.307 91.8942 107.307 92.0391 107.402C92.1363 107.447 92.1859 107.564 92.1859 107.763V108.548L97.8694 105.17V104.376C97.8694 104.186 97.9428 103.994 98.0836 103.803C98.1848 103.561 98.3475 103.371 98.5895 103.224C98.7303 103.129 98.8771 103.129 99.0219 103.224C99.1191 103.319 99.1628 103.466 99.1628 103.656V104.45L104.846 100.992V100.205C104.846 100.008 104.898 99.8158 104.993 99.6254C105.14 99.3893 105.303 99.2207 105.499 99.1254C105.64 99.0282 105.787 99.0005 105.927 99.052C106.072 99.1473 106.146 99.2881 106.146 99.4845V100.272L111.758 96.8917V96.1002C111.758 95.9078 111.829 95.6895 111.976 95.4535C112.071 95.2115 112.218 95.0428 112.402 94.9456C112.601 94.8504 112.74 94.8504 112.837 94.9456C112.982 94.9972 113.055 95.1162 113.055 95.3067V96.1002L118.739 92.7139V91.9263C118.739 91.7299 118.812 91.5157 118.953 91.2737C119.054 91.0832 119.195 90.9146 119.385 90.7738C119.532 90.6785 119.673 90.6785 119.82 90.7738C119.915 90.8194 119.959 90.9424 119.959 91.1348V91.9263L120.826 91.4939ZM111.976 32.7584C112.022 32.9052 111.948 33.046 111.758 33.1908C111.52 33.3317 111.228 33.4051 110.897 33.4051L38.4276 35.3511C38.0448 35.3968 37.7591 35.373 37.5607 35.2778C37.3247 35.131 37.2294 34.9623 37.2751 34.7719C37.3247 34.5814 37.4219 34.4406 37.5607 34.3454C37.7591 34.1986 38.0229 34.1252 38.3542 34.1252L110.964 32.185C111.301 32.185 111.565 32.2307 111.758 32.3259C111.903 32.4211 111.976 32.5679 111.976 32.7584Z" fill="#6DD0EB"/>
</g>
<mask id="mask2_135_7900" style="mask-type:luminance" maskUnits="userSpaceOnUse" x="0" y="93" width="144" height="54">
<path d="M0 93.1562H144V146.988H0V93.1562Z" fill="white"/>
</mask>
<g mask="url(#mask2_135_7900)">
<path fill-rule="evenodd" clip-rule="evenodd" d="M125.936 93.4707L144 104.159L72.1041 146.481H72.0367L0 104.159L16.4792 94.4428V94.8038L24.321 99.4081L14.9656 104.879L71.8899 138.131L128.741 104.879L118.739 99.0491L125.936 94.8038V93.4707Z" fill="#A3E1EE"/>
</g>
<path fill-rule="evenodd" clip-rule="evenodd" d="M24.3184 99.4089L71.1671 127.047H71.2405L118.736 99.0498L128.738 104.88L71.8872 138.132L14.9629 104.88L24.3184 99.4089Z" fill="#4CAFE6"/>
<path fill-rule="evenodd" clip-rule="evenodd" d="M118.736 99.052L71.2404 127.049L71.167 65.2941L125.933 33.0459V94.8067L118.736 99.052ZM120.823 91.4938V43.1215L78.3641 68.5336C78.3641 68.3432 78.2907 68.2182 78.1499 68.1745C78.0051 68.0734 77.8583 68.0734 77.7174 68.1745C77.527 68.2698 77.3802 68.4324 77.2849 68.6744C77.1381 68.8649 77.0707 69.0633 77.0707 69.2537V117.62L74.6207 119.058C74.4343 119.156 74.2875 119.324 74.1922 119.566C74.0454 119.757 73.974 119.947 73.974 120.139C73.974 120.381 74.0454 120.52 74.1922 120.572C74.2875 120.622 74.4343 120.622 74.6207 120.572L77.0707 119.058V122.298C77.0707 122.49 77.1381 122.613 77.2849 122.659C77.3802 122.754 77.527 122.754 77.7174 122.659C77.8583 122.562 78.0051 122.393 78.1499 122.157C78.2907 121.915 78.3641 121.703 78.3641 121.506V118.34L120.823 92.934C121.013 92.8368 121.16 92.6682 121.255 92.4281C121.396 92.2357 121.469 92.0215 121.469 91.7814C121.469 91.589 121.396 91.472 121.255 91.4204C121.16 91.3708 121.013 91.3986 120.823 91.4938Z" fill="#B61840"/>
<path fill-rule="evenodd" clip-rule="evenodd" d="M64.5473 69.0308L22.0886 43.6266V91.991C21.8982 91.8501 21.7573 91.8283 21.6621 91.9235C21.5153 91.9692 21.4419 92.0862 21.4419 92.2846C21.4419 92.5206 21.5153 92.7389 21.6621 92.9313C21.7573 93.1674 21.8982 93.336 22.0886 93.4312L64.5473 118.843V122.009C64.5473 122.2 64.6207 122.39 64.7655 122.583C64.8627 122.825 65.0075 123.015 65.1999 123.162C65.3904 123.257 65.5312 123.257 65.6265 123.162C65.7276 123.067 65.7733 122.92 65.7733 122.728V119.563L68.2907 121.002C68.4831 121.097 68.6279 121.121 68.7251 121.075C68.864 120.98 68.9374 120.833 68.9374 120.643C68.9374 120.45 68.864 120.26 68.7251 120.063C68.6279 119.827 68.4831 119.659 68.2907 119.563L65.7733 118.05V69.7509C65.7733 69.5605 65.7276 69.37 65.6265 69.1776C65.5312 68.9356 65.3904 68.767 65.1999 68.6717C65.0075 68.5765 64.8627 68.5527 64.7655 68.5983C64.6207 68.6995 64.5473 68.8404 64.5473 69.0308ZM58.5027 41.0338L57.856 40.7462L58.7904 40.0995L62.8214 37.6475L66.9258 39.8079L67.9316 40.3137L67.1381 40.7462L62.8948 43.4064L58.5027 41.0338ZM53.5393 75.2222C54.2138 76.6167 54.8089 78.1026 55.3386 79.6876C56.5864 83.7147 56.755 87.218 55.8445 90.1917C55.0291 93.1674 53.3251 94.8992 50.7343 95.3773C48.0959 95.905 45.1896 95.1134 42.0255 93.0047L42.9579 78.3149L53.5393 75.2222ZM88.295 90.1243L81.3181 94.2981V83.427L88.295 79.2552V90.1243ZM96.2837 80.5486V75.7974L103.267 71.6236V76.3747L96.2837 80.5486ZM71.2425 127.046H71.1691L24.3204 99.4083L16.4785 94.804V33.0432L23.1003 36.9274C23.0508 37.0008 23.0269 37.0683 23.0269 37.1476C22.9774 37.2885 23.0508 37.4115 23.2412 37.5067C23.4316 37.6039 23.6737 37.6257 23.9613 37.5801C24.0625 37.5979 24.1577 37.6079 24.247 37.6138L71.1691 65.2914L71.2425 127.046ZM110.749 80.622L103.766 84.7939V59.3877L110.749 55.2158V80.622ZM79.1597 45.2791L84.1965 42.2598L89.2333 44.9915L84.1965 48.0167L79.1597 45.2791ZM79.5922 27.1435C79.5922 27.2387 79.5922 27.3359 79.5922 27.4311L79.6597 27.5719C79.5644 28.0996 79.1597 28.5559 78.4396 28.9427C77.7652 29.3712 76.928 29.6351 75.9202 29.7303C74.8629 29.7303 73.9762 29.5399 73.256 29.157C72.4903 28.7245 72.1035 28.2464 72.1035 27.7168C72.0578 27.0939 72.4189 26.5642 73.1826 26.1317C73.9028 25.6536 74.7954 25.4116 75.8468 25.4116C76.809 25.4116 77.6739 25.6021 78.4396 25.9909C79.0129 26.3222 79.3958 26.711 79.5922 27.1435Z" fill="#ED146F"/>
<path fill-rule="evenodd" clip-rule="evenodd" d="M16.4785 33.0442L71.2425 0.726562L125.935 33.0442L71.1691 65.2924L24.247 37.6148C24.36 37.5989 24.4553 37.5652 24.5406 37.5077L27.058 35.9226L69.7309 58.6686C69.9213 58.7638 70.1138 58.8372 70.3042 58.8828C70.5462 58.8828 70.7882 58.8154 71.0243 58.6686C71.1255 58.5734 71.1691 58.4543 71.1691 58.3095C71.1691 58.1627 71.0977 58.0457 70.9569 57.9485L113.269 32.4709L70.5958 9.72297C70.7882 9.57815 70.8835 9.43731 70.8835 9.29051C70.8835 9.19528 70.7882 9.10006 70.5958 9.00484C70.4054 8.90764 70.1852 8.85804 69.9451 8.85804C69.7527 8.85804 69.5404 8.90764 69.2984 9.00484L26.9866 34.5558L24.1795 33.0442C23.9891 32.949 23.7471 32.9252 23.4614 32.9708C23.2194 32.9252 23.0508 32.9708 22.9555 33.1176C22.7135 33.2128 22.6163 33.3299 22.6679 33.4767C22.6679 33.5719 22.7631 33.6671 22.9555 33.7643L25.834 35.2759L23.2412 36.7896C23.1737 36.8332 23.1281 36.8788 23.1003 36.9284L16.4785 33.0442Z" fill="#F14993"/>
<path fill-rule="evenodd" clip-rule="evenodd" d="M40.7988 79.9769L27.4183 71.9129C27.4183 75.7535 28.5431 79.8083 30.7966 84.0754C33.0066 88.2988 35.7898 91.6613 39.1463 94.1529L40.7988 79.9769ZM64.5466 69.0324V69.9728L63.4674 69.3201C63.3265 69.2249 63.1797 69.2011 63.0389 69.2526C62.8941 69.3479 62.8207 69.4887 62.8207 69.6792C62.8207 69.826 62.8941 70.0184 63.0389 70.2584C63.1797 70.5004 63.3265 70.6631 63.4674 70.7603L64.5466 71.411V77.89L63.4674 77.1699C63.3265 77.0687 63.1797 77.0469 63.0389 77.0965C62.8941 77.1937 62.8207 77.3385 62.8207 77.5309C62.8207 77.7214 62.8941 77.9356 63.0389 78.1776C63.1797 78.3681 63.3265 78.5089 63.4674 78.6101L64.5466 79.2568V85.7338L63.4674 85.0871C63.3265 84.9919 63.1797 84.9641 63.0389 85.0157C62.8941 85.1109 62.8207 85.2518 62.8207 85.4482C62.8207 85.6386 62.8941 85.831 63.0389 86.0215C63.1797 86.2635 63.3265 86.4321 63.4674 86.5273L64.5466 87.174V93.653L63.4674 93.0063C63.3265 92.9091 63.1797 92.8813 63.0389 92.9329C62.8941 93.0281 62.8207 93.169 62.8207 93.3654C62.8207 93.5558 62.8941 93.7483 63.0389 93.9387C63.1797 94.1807 63.3265 94.3493 63.4674 94.4446L64.5466 95.0913V101.57L63.4674 100.924C63.3265 100.828 63.1797 100.799 63.0389 100.85C62.8941 100.896 62.8207 101.041 62.8207 101.283C62.8207 101.475 62.8941 101.665 63.0389 101.856C63.1797 102.098 63.3265 102.267 63.4674 102.362L64.5466 103.008V109.487L63.4674 108.841C63.3265 108.746 63.1797 108.718 63.0389 108.767C62.8941 108.813 62.8207 108.958 62.8207 109.2C62.8207 109.392 62.8941 109.583 63.0389 109.773C63.1797 110.015 63.3265 110.184 63.4674 110.281L64.5466 110.928V117.331L58.9365 113.947V113.159C58.9365 112.963 58.8631 112.749 58.7222 112.507C58.5754 112.316 58.4068 112.176 58.2163 112.08C58.0695 111.983 57.9287 111.955 57.7839 112.007C57.6867 112.051 57.643 112.176 57.643 112.366V113.159L51.9536 109.773V108.982C51.9536 108.789 51.8861 108.599 51.7393 108.408C51.5925 108.166 51.4517 107.998 51.3069 107.902C51.166 107.805 51.0192 107.783 50.8724 107.829C50.7772 107.879 50.7336 107.998 50.7336 108.188V109.055L44.9767 105.601V104.808C44.9767 104.617 44.9251 104.427 44.8299 104.229C44.689 103.992 44.5422 103.848 44.3974 103.802C44.205 103.655 44.0363 103.633 43.8955 103.729C43.8003 103.774 43.7507 103.897 43.7507 104.09V104.881L38.0652 101.497V100.703C38.0652 100.513 37.9938 100.299 37.8529 100.057C37.7577 99.8662 37.6109 99.7194 37.4205 99.6242C37.228 99.4833 37.0832 99.4556 36.986 99.5508C36.8412 99.646 36.7738 99.7928 36.7738 99.9832V100.777L31.1557 97.3924V96.6049C31.1557 96.4065 31.0843 96.1942 30.9434 95.9522C30.7966 95.7162 30.628 95.5475 30.4376 95.4523C30.2967 95.3551 30.1499 95.3551 30.0031 95.4523C29.9079 95.496 29.8643 95.6209 29.8643 95.8114V96.6049L24.1788 93.2186V92.4271C24.1788 92.2346 24.1074 92.0204 23.9606 91.7803C23.8654 91.5879 23.7245 91.4193 23.5281 91.2725C23.3873 91.1773 23.2405 91.1773 23.0996 91.2725C22.9548 91.3241 22.8814 91.4431 22.8814 91.6336V92.4271L22.0879 91.9926V43.6283L64.5466 69.0324ZM52.3126 40.242C52.1222 40.1467 51.8564 40.0734 51.5251 40.0277C51.2335 40.0734 50.9974 40.1686 50.805 40.3154C50.5134 40.4622 50.3963 40.601 50.4459 40.7478C50.4459 40.9403 50.5649 41.0791 50.805 41.1803C50.9974 41.2775 51.2335 41.3211 51.5251 41.3211C51.8127 41.3727 52.0766 41.2993 52.3126 41.1089C52.509 40.9621 52.6043 40.7935 52.6043 40.601C52.6043 40.4622 52.509 40.3372 52.3126 40.242ZM55.8438 40.6744C55.8438 40.4324 55.7485 40.2697 55.5502 40.1686C55.3141 40.0277 55.0284 40 54.6912 40.1011C54.4492 40.0515 54.2349 40.1011 54.0445 40.242C53.8025 40.3888 53.6854 40.5574 53.6854 40.7478C53.6854 40.8431 53.8025 40.9621 54.0445 41.1089C54.2349 41.2041 54.471 41.2775 54.7646 41.3211C55.0959 41.2775 55.3597 41.1803 55.5502 41.0355C55.7485 40.9403 55.8438 40.8212 55.8438 40.6744ZM71.0236 50.6786L75.9929 47.5859L70.9561 44.9197L65.9848 48.0184L71.0236 50.6786ZM66.9251 39.8095L62.8207 37.6492L58.7897 40.1011H58.7222C58.5298 40 58.2897 39.9325 58.0021 39.8829C57.6649 39.9325 57.3772 40 57.1372 40.1011C57.04 40.242 56.9686 40.4106 56.9229 40.601C56.9229 40.7935 57.0182 40.9403 57.2086 41.0355C57.401 41.1307 57.6649 41.1803 58.0021 41.1803C58.2382 41.1803 58.4068 41.1307 58.502 41.0355L62.8941 43.4081L67.1374 40.7478C67.2842 40.8431 67.4746 40.8887 67.7166 40.8887C68.0499 40.8887 68.3137 40.8212 68.5042 40.6744C68.7006 40.5296 68.7958 40.3888 68.7958 40.242C68.7958 40.0515 68.7006 39.9107 68.5042 39.8095C68.2681 39.7143 68.0043 39.6687 67.7166 39.6687C67.425 39.7143 67.1671 39.7639 66.9251 39.8095ZM70.9561 39.5953C70.6189 39.5953 70.3769 39.6409 70.236 39.7421C69.994 39.8829 69.877 40.0277 69.877 40.1686C69.877 40.361 69.994 40.5296 70.236 40.6744C70.4265 40.7716 70.6625 40.7935 70.9561 40.7478C71.2418 40.7935 71.5056 40.7201 71.7437 40.5296C71.9401 40.484 72.0353 40.361 72.0353 40.1686C72.0353 40.0277 71.9401 39.9107 71.7437 39.8095C71.5056 39.6687 71.2418 39.5953 70.9561 39.5953ZM42.9572 78.3165L42.0248 93.0063C45.1889 95.1151 48.0951 95.9066 50.7336 95.3789C53.3244 94.9008 55.0284 93.169 55.8438 90.1933C56.7543 87.2197 56.5857 83.7163 55.3379 79.6893C54.8082 78.1042 54.2131 76.6184 53.5386 75.2238C53.1061 74.3589 52.6499 73.5197 52.1718 72.7044C50.8288 70.3993 49.2199 68.3421 47.3492 66.515L46.774 65.9397C44.6612 63.9222 42.4791 62.5336 40.2255 61.7619L38.9995 61.4029C38.9043 61.3076 38.7853 61.262 38.6405 61.262C38.4044 61.2104 38.1842 61.1668 37.9938 61.1152C36.5992 60.9248 35.3673 61.0319 34.2881 61.4425L33.8219 61.6548C33.3934 61.875 32.9828 62.1507 32.5959 62.482C32.5225 62.5336 32.4491 62.5832 32.3817 62.6288C32.1178 62.8312 31.8758 63.0613 31.6616 63.3152L31.5564 63.4541L31.4434 63.5612L29.5766 70.187V70.3318L42.9572 78.3165ZM63.6856 27.3594C63.4952 27.5062 63.3722 27.645 63.3265 27.7918C63.3722 27.9842 63.4952 28.1231 63.6856 28.2243C63.9276 28.3215 64.1637 28.3651 64.4057 28.3651C64.7886 28.3651 65.0742 28.3215 65.2667 28.2243C65.4631 28.0795 65.5305 27.9108 65.4849 27.7184C65.4849 27.5736 65.4115 27.4546 65.2667 27.3594C65.0306 27.2126 64.743 27.1451 64.4057 27.1451C64.1637 27.1907 63.9276 27.2641 63.6856 27.3594ZM61.2396 28.5119C61.5273 28.4604 61.7693 28.3651 61.9597 28.2243C62.1521 28.1231 62.2692 27.9842 62.3208 27.7918C62.3644 27.6014 62.2692 27.4546 62.0272 27.3594C61.8367 27.2126 61.5729 27.1689 61.2396 27.2126C60.9024 27.2641 60.6385 27.3375 60.4481 27.4328C60.2061 27.5736 60.1108 27.7184 60.1604 27.8652C60.1108 28.0557 60.1842 28.1965 60.3747 28.2917C60.6167 28.4385 60.9024 28.5119 61.2396 28.5119ZM70.1626 27.1451C69.9722 27.286 69.877 27.4546 69.877 27.645C69.877 27.7918 69.9722 27.9327 70.1626 28.0795C70.4046 28.1747 70.6625 28.2243 70.9561 28.2243C71.1922 28.1747 71.456 28.0795 71.7437 27.9327C71.9401 27.8374 72.0353 27.7184 72.0353 27.5736C71.9837 27.3812 71.8885 27.2403 71.7437 27.1451C71.5056 26.9983 71.2418 26.9547 70.9561 26.9983C70.6189 26.9983 70.3531 27.0439 70.1626 27.1451ZM68.5042 27.1451C68.3137 27.0439 68.0499 27.0221 67.7166 27.0717C67.425 27.0717 67.1671 27.1451 66.9251 27.286C66.6831 27.3812 66.5879 27.528 66.6375 27.7184C66.5879 27.8652 66.6831 27.9842 66.9251 28.0795C67.1155 28.2243 67.3794 28.2917 67.7166 28.2917C68.0043 28.2917 68.2463 28.2243 68.4367 28.0795C68.6728 27.9327 68.7958 27.7918 68.7958 27.645C68.7958 27.4546 68.7006 27.286 68.5042 27.1451ZM47.135 28.2243C47.135 28.3651 47.252 28.5119 47.4941 28.6528C47.6865 28.754 47.9265 28.7996 48.2142 28.7996C48.5514 28.754 48.8391 28.6806 49.0751 28.5853C49.2715 28.4385 49.339 28.2917 49.2933 28.1529C49.3886 27.9604 49.3152 27.8136 49.0751 27.7184C48.8391 27.5736 48.5514 27.528 48.2142 27.5736C47.9721 27.5736 47.7361 27.645 47.4941 27.7918C47.3036 27.887 47.1786 28.0338 47.135 28.2243ZM56.8495 28.0061C56.8952 28.1529 57.0182 28.2699 57.2086 28.3651C57.4506 28.5119 57.6867 28.5853 57.9287 28.5853C58.2659 28.5853 58.5536 28.5119 58.7897 28.3651C58.986 28.2243 59.0535 28.0795 59.0079 27.9327C59.0535 27.7422 58.9583 27.5736 58.7222 27.4328C58.5298 27.3375 58.2659 27.3137 57.9287 27.3594C57.643 27.3137 57.401 27.3812 57.2086 27.5736C57.0182 27.6748 56.8952 27.8136 56.8495 28.0061ZM51.5251 27.4328C51.1878 27.4764 50.924 27.5498 50.7336 27.645C50.4915 27.7918 50.3963 27.9604 50.4459 28.1529C50.4459 28.3433 50.5411 28.4842 50.7336 28.5853C50.9736 28.7262 51.2335 28.7758 51.5251 28.7262C51.8127 28.7262 52.0766 28.6528 52.3126 28.5119C52.509 28.3651 52.6043 28.1965 52.6043 28.0061C52.5547 27.8652 52.4594 27.7422 52.3126 27.645C52.0766 27.5498 51.8127 27.4764 51.5251 27.4328ZM54.7646 28.6528C55.0502 28.6072 55.3141 28.5119 55.5502 28.3651C55.7485 28.2699 55.8438 28.1529 55.8438 28.0061C55.8874 27.8136 55.7922 27.6748 55.5502 27.5736C55.3597 27.4764 55.0959 27.4328 54.7646 27.4328C54.3758 27.4328 54.1119 27.4764 53.9711 27.5736C53.7806 27.7184 53.6854 27.887 53.6854 28.0795C53.6854 28.2243 53.8025 28.3651 54.0445 28.5119C54.2349 28.6072 54.471 28.6528 54.7646 28.6528ZM63.5408 18.722C62.8207 19.2001 62.4596 19.7278 62.4596 20.3071C62.4596 20.8804 62.8207 21.3585 63.5408 21.7473C64.3105 22.1738 65.221 22.3662 66.2784 22.3206C67.2842 22.275 68.1451 22.0052 68.8633 21.5271C69.5834 21.1462 69.994 20.6383 70.0892 20.0154C70.0456 19.4421 69.6349 18.9581 68.8633 18.5752C68.1451 18.1924 67.2842 18.0019 66.2784 18.0019C65.1695 18.0475 64.2589 18.2896 63.5408 18.722ZM70.5951 9.72363L113.268 32.4715L70.9561 57.9491L70.0892 57.5167L71.1684 56.8699C71.3152 56.7747 71.4104 56.6557 71.456 56.5109C71.456 56.3641 71.3608 56.2451 71.1684 56.1498C71.0236 56.0546 70.8093 56.005 70.5237 56.005C70.236 56.005 70.0158 56.0546 69.877 56.1498L68.8633 56.7965L63.1797 53.7772L64.1875 53.1246C64.3323 53.0294 64.4275 52.9341 64.4791 52.8389C64.4791 52.6465 64.4057 52.5056 64.2589 52.4045C64.0685 52.3093 63.8542 52.2874 63.6122 52.337C63.3265 52.337 63.1063 52.3827 62.9675 52.4779L61.8863 53.1246L56.2028 50.1053L57.2086 49.4586C57.3494 49.3574 57.4506 49.2384 57.4962 49.0995C57.4962 48.9527 57.4228 48.8337 57.282 48.7385C57.0915 48.6373 56.8495 48.5936 56.5639 48.5936C56.3218 48.5936 56.1294 48.6373 55.9846 48.7385L54.9034 49.3852L49.2199 46.3599L50.2991 45.7132C50.4459 45.618 50.5134 45.5228 50.5134 45.4275C50.5134 45.2351 50.4459 45.0903 50.2991 44.9931C50.1087 44.8979 49.8944 44.8761 49.6524 44.9197C49.3667 44.9197 49.1465 44.9713 49.0077 45.0665L47.9265 45.7132L42.2371 42.6205L43.3162 41.9679C43.463 41.8726 43.5364 41.7774 43.5364 41.6822C43.5821 41.4898 43.5146 41.3489 43.3162 41.2477C43.1258 41.1525 42.9115 41.1307 42.6715 41.1803C42.3839 41.1803 42.1696 41.2259 42.0248 41.3211L41.017 41.9679L35.2601 38.9486L36.3393 38.3018C36.4365 38.2007 36.5079 38.0836 36.5536 37.9428C36.6051 37.796 36.5317 37.677 36.3393 37.5817C36.1489 37.4806 35.9307 37.4587 35.6946 37.5083C35.401 37.4587 35.1867 37.4806 35.0419 37.5817L34.0342 38.2284L28.3507 35.2032L33.9628 31.8248L34.6134 32.1839C34.8059 32.2791 35.0181 32.3029 35.2601 32.2513C35.5022 32.3029 35.6946 32.2513 35.8334 32.1105C36.0755 32.0609 36.1707 31.9637 36.1211 31.8248C36.1211 31.6324 36.0536 31.4876 35.9068 31.3904L35.1867 31.0313L40.8722 27.645L41.5904 28.0795C41.7372 28.1231 41.9276 28.1529 42.1696 28.1529C42.4573 28.1529 42.6715 28.1013 42.8163 28.0061C43.0088 27.8652 43.0802 27.7184 43.0306 27.5736C43.0306 27.4328 42.9354 27.3137 42.7429 27.2126L42.0982 26.8535L47.7083 23.3998L48.4284 23.8342C48.6189 23.8778 48.8609 23.9294 49.1465 23.9731C49.3886 23.9731 49.581 23.9294 49.7258 23.8342C49.9182 23.737 49.9916 23.5922 49.9401 23.3998C49.9916 23.2549 49.9182 23.1359 49.7258 23.0407L49.0751 22.6796L54.6912 19.2279L55.4113 19.6544C55.5502 19.706 55.7704 19.7556 56.056 19.8012C56.2484 19.8012 56.4389 19.7556 56.6313 19.6544C56.8713 19.5592 56.9686 19.4183 56.9229 19.2279C56.9229 19.0811 56.8495 18.9859 56.7027 18.9363L55.9846 18.5078L61.6681 15.1235L62.3208 15.4825C62.5112 15.5777 62.7017 15.6293 62.8941 15.6293C63.1797 15.6293 63.4218 15.5559 63.6122 15.4091C63.759 15.3139 63.8265 15.2187 63.8265 15.1235C63.8265 14.931 63.759 14.7862 63.6122 14.689L62.8941 14.3299L68.5042 10.9496L69.2243 11.3106C69.3711 11.3999 69.5834 11.4515 69.877 11.4515C70.113 11.3999 70.3312 11.3325 70.5237 11.2373C70.6625 11.142 70.7359 11.0171 70.7359 10.8782C70.7359 10.781 70.6407 10.6798 70.4503 10.5905L69.8036 10.2315L70.5951 9.72363ZM81.3174 94.2997V111.646L88.2943 107.468V79.2568L81.3174 83.4287V94.2997ZM88.8002 98.2574V107.182L95.783 102.937V83.2144L88.8002 87.3883V98.2574ZM103.266 76.3764V71.6252L96.283 75.7991V102.723L103.266 98.545V76.3764ZM103.766 84.7955V98.184L110.749 94.0855V55.2175L103.766 59.3893V84.7955ZM120.824 91.4927L119.957 91.9252V91.1336C119.957 90.9412 119.914 90.8182 119.818 90.7726C119.672 90.6774 119.531 90.6774 119.384 90.7726C119.194 90.9134 119.053 91.0821 118.952 91.2725C118.811 91.5145 118.737 91.7288 118.737 91.9252V92.7127L113.054 96.099V95.3055C113.054 95.1151 112.98 94.996 112.836 94.9445C112.738 94.8492 112.599 94.8492 112.401 94.9445C112.217 95.0417 112.07 95.2103 111.975 95.4523C111.828 95.6884 111.756 95.9066 111.756 96.099V96.8905L106.144 100.271V99.4833C106.144 99.2869 106.071 99.1461 105.926 99.0509C105.785 98.9993 105.638 99.0271 105.498 99.1243C105.301 99.2195 105.139 99.3881 104.992 99.6242C104.896 99.8146 104.845 100.007 104.845 100.203V100.991L99.1614 104.449V103.655C99.1614 103.465 99.1178 103.318 99.0206 103.223C98.8757 103.128 98.7289 103.128 98.5881 103.223C98.3461 103.37 98.1834 103.56 98.0822 103.802C97.9414 103.992 97.868 104.185 97.868 104.375V105.169L92.1845 108.547V107.762C92.1845 107.563 92.1349 107.446 92.0377 107.401C91.8929 107.305 91.752 107.305 91.6052 107.401C91.4148 107.496 91.268 107.664 91.1728 107.902C91.0319 108.142 90.9585 108.357 90.9585 108.547V109.341L85.275 112.727V111.86C85.275 111.719 85.2294 111.596 85.1282 111.501C84.9893 111.455 84.8207 111.477 84.6283 111.574C84.4319 111.67 84.291 111.814 84.1958 112.007C84.049 112.243 83.9756 112.461 83.9756 112.654V113.445L78.3655 116.825V110.42L79.4447 109.773C79.5915 109.678 79.7323 109.509 79.8772 109.267C79.9744 109.077 80.018 108.886 80.018 108.694C80.018 108.452 79.9744 108.311 79.8772 108.262C79.7323 108.216 79.5915 108.24 79.4447 108.335L78.3655 108.982V102.503L79.4447 101.856C79.5915 101.761 79.7323 101.614 79.8772 101.423C79.9744 101.187 80.018 100.967 80.018 100.777C80.018 100.535 79.9744 100.418 79.8772 100.418C79.7323 100.32 79.5915 100.32 79.4447 100.418L78.3655 101.064V94.5854L79.4447 93.9387C79.5915 93.8435 79.7323 93.6967 79.8772 93.5062C79.9744 93.2702 80.018 93.05 80.018 92.8595C80.018 92.6671 79.9744 92.5501 79.8772 92.4985C79.7323 92.4033 79.5915 92.4033 79.4447 92.4985L78.3655 93.1452V86.6682L79.4447 86.0215C79.5915 85.9262 79.7323 85.7794 79.8772 85.589C79.9744 85.3529 80.018 85.1327 80.018 84.9423C80.018 84.7499 79.9744 84.6328 79.8772 84.5812C79.7323 84.486 79.5915 84.486 79.4447 84.5812L78.3655 85.228V78.7509L79.4447 78.1042C79.5915 78.009 79.7323 77.8622 79.8772 77.6698C79.9744 77.4297 80.018 77.2155 80.018 77.0231C80.018 76.8326 79.9744 76.7096 79.8772 76.664C79.7323 76.5688 79.5915 76.5688 79.4447 76.664L78.3655 77.3841V70.9051L79.4447 70.2584C79.5915 70.1632 79.7323 70.0184 79.8772 69.826C79.9744 69.5403 80.018 69.2983 80.018 69.1058C80.018 68.961 79.9744 68.8638 79.8772 68.8202C79.7323 68.725 79.5915 68.725 79.4447 68.8202L78.3655 69.4669V68.5325L120.824 43.1204V91.4927ZM111.254 86.2357V93.7244L118.231 89.5466V62.6288L111.254 66.8007V86.2357ZM79.159 45.2808L84.1958 48.0184L89.2326 44.9931L84.1958 42.2615L79.159 45.2808ZM75.2728 40.1011C75.2728 39.9107 75.1776 39.7639 74.9812 39.6687C74.7451 39.5219 74.4813 39.4782 74.1936 39.5219C73.8564 39.4782 73.5926 39.5219 73.4021 39.6687C73.2097 39.8095 73.1145 39.9781 73.1145 40.1686C73.1145 40.2697 73.2335 40.3888 73.4735 40.5296C73.666 40.6308 73.902 40.6982 74.1936 40.7478C74.4357 40.6982 74.6936 40.601 74.9812 40.4622C75.1776 40.361 75.2728 40.242 75.2728 40.1011ZM78.5123 39.9543C78.5123 39.7639 78.3933 39.6171 78.1513 39.5219C77.9549 39.4266 77.7188 39.381 77.4331 39.381C77.0959 39.381 76.8301 39.4485 76.6396 39.5953C76.4492 39.6905 76.3242 39.8373 76.2806 40.0277C76.3242 40.2201 76.4492 40.361 76.6396 40.4622C76.8301 40.5574 77.0721 40.601 77.3597 40.601C77.697 40.5574 77.9549 40.5058 78.1513 40.4622C78.3933 40.2697 78.5123 40.1011 78.5123 39.9543ZM81.6764 39.8095C81.6328 39.6687 81.5316 39.5496 81.3908 39.4485C81.1488 39.3532 80.8849 39.2798 80.5973 39.2362C80.3116 39.2798 80.0696 39.381 79.8772 39.5219C79.6371 39.6687 79.5399 39.7857 79.5915 39.8829C79.5915 40.0734 79.6867 40.2201 79.8772 40.3154C80.1132 40.4622 80.3552 40.5058 80.5973 40.4622C80.8849 40.5058 81.1706 40.4622 81.4582 40.3154C81.603 40.1686 81.6764 40 81.6764 39.8095ZM84.9159 39.8095C84.9159 39.6171 84.8207 39.4782 84.6283 39.381C84.4319 39.2362 84.174 39.1906 83.8368 39.2362C83.5491 39.1906 83.3071 39.2362 83.1167 39.381C82.8746 39.5219 82.7556 39.6905 82.7556 39.8829C82.7556 40.0277 82.8528 40.1467 83.0433 40.242C83.2853 40.3888 83.5491 40.4622 83.8368 40.4622C84.174 40.4106 84.4319 40.3154 84.6283 40.1686C84.8207 40.0277 84.9159 39.9107 84.9159 39.8095ZM88.1535 39.6687C88.1535 39.5219 88.0582 39.381 87.8678 39.2362C87.6258 39.139 87.3619 39.0894 87.0743 39.0894C86.7866 39.139 86.5228 39.2362 86.2808 39.381C86.0903 39.4266 86.0169 39.5734 86.0685 39.8095C85.9733 39.9543 86.0407 40.0734 86.2808 40.1686C86.5228 40.3154 86.8104 40.3888 87.1477 40.3888C87.3897 40.3372 87.6258 40.2697 87.8678 40.1686C88.0582 40.0277 88.1535 39.8591 88.1535 39.6687ZM89.5937 40.1011C89.7841 40.1963 89.9984 40.242 90.2404 40.242C90.5776 40.242 90.8415 40.1686 91.0319 40.0277C91.268 39.8829 91.4148 39.7421 91.4644 39.5953C91.4148 39.4485 91.2957 39.3314 91.1053 39.2362C90.9089 39.0894 90.6728 39.022 90.3852 39.022C90.048 39.022 89.7623 39.0894 89.5203 39.2362C89.3278 39.3314 89.2108 39.4782 89.1592 39.6687C89.2108 39.8095 89.3516 39.9543 89.5937 40.1011ZM94.6305 39.5219C94.5848 39.3314 94.4618 39.1906 94.2714 39.0894C94.0294 38.9486 93.7874 38.899 93.5513 38.9486C93.2636 38.899 93.0216 38.9486 92.8312 39.0894C92.5892 39.2362 92.4721 39.4048 92.4721 39.5953C92.5158 39.7857 92.6407 39.9325 92.8312 40.0277C93.0673 40.1249 93.3093 40.1686 93.5513 40.1686C93.8885 40.1249 94.1464 40.0515 94.3428 39.9543C94.5352 39.8095 94.6305 39.6687 94.6305 39.5219ZM96.0687 39.8829C96.2611 40.0277 96.4754 40.1011 96.7154 40.1011C97.0527 40.0515 97.3185 39.9781 97.5089 39.8829C97.6994 39.7421 97.8462 39.5734 97.9414 39.381C97.8918 39.1906 97.745 39.0438 97.5089 38.9486C97.3621 38.8533 97.1261 38.8018 96.7888 38.8018C96.4516 38.8533 96.1877 38.9208 95.9973 39.022C95.8049 39.1628 95.6878 39.3314 95.6362 39.5219C95.6878 39.6687 95.8287 39.7857 96.0687 39.8829ZM99.1614 39.8095C99.4034 39.9543 99.6911 40.0277 100.028 40.0277C100.264 39.9781 100.506 39.8829 100.746 39.7421C100.939 39.6409 101.062 39.5 101.107 39.3096C101.062 39.1628 100.915 39.022 100.675 38.8752C100.483 38.7799 100.264 38.7303 100.028 38.7303C99.6911 38.7799 99.4034 38.8533 99.1614 38.9486C99.0206 39.0894 98.9491 39.258 98.9491 39.4485C98.9035 39.5953 98.971 39.7143 99.1614 39.8095ZM94.6305 26.8535C94.5848 26.6611 94.4618 26.5222 94.2714 26.425C94.079 26.3238 93.837 26.2802 93.5513 26.2802C93.2141 26.2802 92.9264 26.3516 92.6844 26.4925C92.4939 26.6393 92.4265 26.8079 92.4721 26.9983C92.4265 27.1451 92.5158 27.286 92.7578 27.4328C92.9502 27.528 93.2141 27.5736 93.5513 27.5736C93.837 27.528 94.079 27.4546 94.2714 27.3594C94.4618 27.2126 94.5848 27.0439 94.6305 26.8535ZM91.1053 27.4328C91.2957 27.286 91.3691 27.1173 91.3195 26.9269C91.3691 26.7861 91.268 26.6393 91.0319 26.4925C90.8415 26.3972 90.5776 26.3516 90.2404 26.3516C89.9984 26.3972 89.7623 26.4925 89.5203 26.6393C89.3278 26.7345 89.2108 26.8813 89.1592 27.0717C89.2108 27.2126 89.3278 27.3375 89.5203 27.4328C89.7623 27.5736 89.9984 27.645 90.2404 27.645C90.6272 27.6014 90.9089 27.528 91.1053 27.4328ZM98.8757 26.7861C98.8757 26.9269 98.9928 27.0717 99.2348 27.2126C99.4252 27.3137 99.6673 27.3594 99.9549 27.3594C100.292 27.3594 100.556 27.286 100.746 27.1451C100.939 26.9983 101.012 26.8297 100.961 26.6393C101.012 26.4925 100.939 26.3754 100.746 26.2802C100.556 26.1334 100.264 26.0659 99.8815 26.0659C99.6454 26.1116 99.4252 26.2068 99.2348 26.3516C98.9928 26.4925 98.8757 26.6393 98.8757 26.7861ZM97.7966 26.7861C97.745 26.5936 97.6498 26.4488 97.5089 26.3516C97.2669 26.2564 97.0031 26.2068 96.7154 26.2068C96.4297 26.2068 96.1659 26.302 95.9239 26.4925C95.7315 26.5936 95.6362 26.7127 95.6362 26.8535C95.6878 27.0439 95.8049 27.1907 95.9973 27.286C96.2393 27.4328 96.4754 27.4764 96.7154 27.4328C97.1042 27.4328 97.3621 27.3812 97.5089 27.286C97.6994 27.0955 97.7966 26.9269 97.7966 26.7861ZM86.2808 26.6393C86.0407 26.786 85.9495 26.9547 85.9951 27.1451C85.9951 27.286 86.0903 27.405 86.2808 27.5062C86.4732 27.6014 86.737 27.6748 87.0743 27.7184C87.3619 27.6748 87.602 27.6014 87.7944 27.5062C88.0305 27.3594 88.1535 27.2126 88.1535 27.0717C88.1078 26.8813 87.9848 26.7345 87.7944 26.6393C87.602 26.544 87.3619 26.4925 87.0743 26.4925C86.737 26.4925 86.4732 26.544 86.2808 26.6393ZM83.0433 26.7861C82.8965 26.8813 82.8012 27.0221 82.7556 27.2126C82.7556 27.3594 82.8746 27.5062 83.1167 27.645C83.3071 27.7422 83.5491 27.7918 83.8368 27.7918C84.1224 27.7918 84.3863 27.7184 84.6283 27.5736C84.8207 27.4328 84.8921 27.286 84.8425 27.1451C84.8921 26.9983 84.8207 26.8813 84.6283 26.7861C84.3863 26.6393 84.1006 26.5659 83.7634 26.5659C83.4757 26.5659 83.2337 26.6393 83.0433 26.7861ZM79.5915 27.1451C79.3951 26.7127 79.0122 26.3238 78.4389 25.9925C77.6732 25.6037 76.8083 25.4133 75.8461 25.4133C74.7947 25.4133 73.902 25.6553 73.1819 26.1334C72.4182 26.5659 72.0571 27.0955 72.1028 27.7184C72.1028 28.2481 72.4896 28.7262 73.2553 29.1586C73.9754 29.5415 74.8622 29.732 75.9195 29.732C76.9273 29.6367 77.7644 29.3729 78.4389 28.9444C79.159 28.5576 79.5637 28.1013 79.6589 27.5736C79.6589 27.6232 79.7085 27.6748 79.8057 27.7184C79.9962 27.8652 80.26 27.9108 80.5973 27.8652C80.8849 27.8652 81.1488 27.8136 81.3908 27.7184C81.5316 27.5736 81.6546 27.4328 81.7498 27.286C81.7002 27.0955 81.5812 26.9547 81.3908 26.8535C81.1488 26.7127 80.8849 26.6611 80.5973 26.7127C80.26 26.7127 79.9962 26.7861 79.8057 26.9269C79.7085 26.9765 79.6371 27.0439 79.5915 27.1451ZM85.9217 20.2337C85.9217 19.706 85.5388 19.2497 84.7691 18.8688C84.049 18.4344 83.1901 18.238 82.1783 18.2896C81.1269 18.2896 80.2144 18.5078 79.4447 18.9363C78.7762 19.3687 78.3933 19.8964 78.2921 20.5213C78.3437 21.1462 78.7246 21.6461 79.4447 22.0329C80.2144 22.4158 81.0972 22.5844 82.1109 22.5348C83.1603 22.4396 84.049 22.2035 84.7691 21.8147C85.5388 21.3366 85.9217 20.8089 85.9217 20.2337ZM111.975 32.7572C111.975 32.5668 111.901 32.42 111.756 32.3247C111.564 32.2295 111.3 32.1839 110.963 32.1839L38.3528 34.124C38.0215 34.124 37.7577 34.1974 37.5593 34.3442C37.4205 34.4394 37.3233 34.5803 37.2737 34.7707C37.228 34.9612 37.3233 35.1298 37.5593 35.2766C37.7577 35.3718 38.0434 35.3956 38.4262 35.35L110.895 33.4039C111.227 33.4039 111.518 33.3305 111.756 33.1897C111.947 33.0448 112.02 32.904 111.975 32.7572Z" fill="#FBFCFC"/>
<path fill-rule="evenodd" clip-rule="evenodd" d="M71.0221 50.6786L65.9834 48.0184L70.9547 44.9197L75.9915 47.5859L71.0221 50.6786ZM53.5372 75.2238L42.9557 78.3165L29.5752 70.3319V70.187L31.4419 63.5612L31.555 63.4541L31.6601 63.3153C31.797 63.1744 31.9359 63.0395 32.0946 62.9145C32.1839 62.8193 32.2791 62.7241 32.3802 62.6289C32.4477 62.5832 32.5211 62.5337 32.5945 62.4821C32.9813 62.1508 33.392 61.875 33.8205 61.6548L34.2867 61.4426C35.3658 61.0319 36.5977 60.9248 37.9923 61.1153C38.1828 61.1668 38.403 61.2105 38.6391 61.2621C38.7839 61.2621 38.9029 61.3077 38.9981 61.4029L40.2241 61.762C42.4776 62.5337 44.6598 63.9223 46.7725 65.9398L47.3478 66.5151C49.2185 68.3421 50.8273 70.3993 52.1704 72.7044C52.6485 73.5198 53.1047 74.3589 53.5372 75.2238ZM63.5394 18.7221C64.2575 18.2896 65.168 18.0476 66.277 18.002C67.2827 18.002 68.1437 18.1924 68.8618 18.5753C69.6335 18.9581 70.0442 19.4422 70.0878 20.0155C69.9926 20.6384 69.5819 21.1462 68.8618 21.5271C68.1437 22.0052 67.2827 22.275 66.277 22.3206C65.2196 22.3663 64.3091 22.1738 63.5394 21.7473C62.8193 21.3585 62.4582 20.8804 62.4582 20.3071C62.4582 19.7278 62.8193 19.2002 63.5394 18.7221ZM88.7987 98.2574L95.7816 94.0855V102.937L88.7987 107.182V98.2574ZM96.2815 80.5503L103.264 76.3764V98.5451L96.2815 102.723V80.5503ZM88.2929 90.1259V107.468L81.3159 111.646V94.2998L88.2929 90.1259ZM103.764 84.7955L110.747 80.6237V94.0855L103.764 98.184V84.7955ZM111.253 86.2357L118.23 82.0619V89.5467L111.253 93.7245V86.2357ZM85.9203 20.2337C85.9203 20.809 85.5374 21.3367 84.7677 21.8148C84.0476 22.2036 83.1589 22.4396 82.1095 22.5349C81.0957 22.5845 80.213 22.4158 79.4433 22.033C78.7232 21.6461 78.3423 21.1462 78.2907 20.5213C78.3919 19.8965 78.7747 19.3688 79.4433 18.9363C80.213 18.5078 81.1255 18.2896 82.1769 18.2896C83.1886 18.238 84.0476 18.4344 84.7677 18.8689C85.5374 19.2497 85.9203 19.706 85.9203 20.2337Z" fill="#3854AD"/>
<path fill-rule="evenodd" clip-rule="evenodd" d="M31.6611 63.3138C31.8754 63.0599 32.1174 62.8298 32.3812 62.6274C32.2801 62.7227 32.1848 62.8179 32.0956 62.9131C31.9369 63.0381 31.798 63.173 31.6611 63.3138Z" fill="#ED1C24"/>
<path fill-rule="evenodd" clip-rule="evenodd" d="M52.3124 40.2395C52.5088 40.3347 52.604 40.4597 52.604 40.5986C52.604 40.791 52.5088 40.9596 52.3124 41.1064C52.0763 41.2969 51.8125 41.3703 51.5249 41.3187C51.2332 41.3187 50.9972 41.275 50.8047 41.1778C50.5647 41.0767 50.4457 40.9378 50.4457 40.7454C50.3961 40.5986 50.5131 40.4597 50.8047 40.3129C50.9972 40.1661 51.2332 40.0709 51.5249 40.0253C51.8561 40.0709 52.122 40.1443 52.3124 40.2395ZM55.8435 40.672C55.8435 40.8188 55.7483 40.9378 55.5499 41.033C55.3595 41.1778 55.0956 41.275 54.7644 41.3187C54.4708 41.275 54.2347 41.2016 54.0442 41.1064C53.8022 40.9596 53.6852 40.8406 53.6852 40.7454C53.6852 40.5549 53.8022 40.3863 54.0442 40.2395C54.2347 40.0987 54.4489 40.0491 54.691 40.0987C55.0282 39.9975 55.3139 40.0253 55.5499 40.1661C55.7483 40.2673 55.8435 40.43 55.8435 40.672ZM58.7894 40.0987L57.8551 40.7454L58.5018 41.033C58.4066 41.1282 58.2379 41.1778 58.0019 41.1778C57.6646 41.1778 57.4008 41.1282 57.2084 41.033C57.0179 40.9378 56.9227 40.791 56.9227 40.5986C56.9683 40.4081 57.0397 40.2395 57.1369 40.0987C57.377 39.9975 57.6646 39.93 58.0019 39.8804C58.2895 39.93 58.5296 39.9975 58.722 40.0987H58.7894ZM67.1371 40.7454L67.9306 40.3129L66.9249 39.807C67.1669 39.7614 67.4248 39.7118 67.7164 39.6662C68.004 39.6662 68.2679 39.7118 68.504 39.807C68.7003 39.9082 68.7956 40.0491 68.7956 40.2395C68.7956 40.3863 68.7003 40.5272 68.504 40.672C68.3135 40.8188 68.0497 40.8862 67.7164 40.8862C67.4744 40.8862 67.2839 40.8406 67.1371 40.7454ZM70.9559 39.5928C71.2416 39.5928 71.5054 39.6662 71.7435 39.807C71.9398 39.9082 72.0351 40.0253 72.0351 40.1661C72.0351 40.3585 71.9398 40.4815 71.7435 40.5272C71.5054 40.7176 71.2416 40.791 70.9559 40.7454C70.6623 40.791 70.4262 40.7692 70.2358 40.672C69.9938 40.5272 69.8767 40.3585 69.8767 40.1661C69.8767 40.0253 69.9938 39.8804 70.2358 39.7396C70.3766 39.6384 70.6187 39.5928 70.9559 39.5928ZM54.7644 28.6503C54.4708 28.6503 54.2347 28.6047 54.0442 28.5095C53.8022 28.3627 53.6852 28.2218 53.6852 28.077C53.6852 27.8846 53.7804 27.716 53.9708 27.5711C54.1117 27.4739 54.3755 27.4303 54.7644 27.4303C55.0956 27.4303 55.3595 27.4739 55.5499 27.5711C55.7919 27.6723 55.8872 27.8112 55.8435 28.0036C55.8435 28.1504 55.7483 28.2674 55.5499 28.3627C55.3139 28.5095 55.05 28.6047 54.7644 28.6503ZM51.5249 27.4303C51.8125 27.4739 52.0763 27.5473 52.3124 27.6426C52.4592 27.7398 52.5544 27.8628 52.604 28.0036C52.604 28.194 52.5088 28.3627 52.3124 28.5095C52.0763 28.6503 51.8125 28.7237 51.5249 28.7237C51.2332 28.7733 50.9734 28.7237 50.7333 28.5829C50.5409 28.4817 50.4457 28.3408 50.4457 28.1504C50.3961 27.958 50.4913 27.7894 50.7333 27.6426C50.9238 27.5473 51.1876 27.4739 51.5249 27.4303ZM56.8493 28.0036C56.8949 27.8112 57.0179 27.6723 57.2084 27.5711C57.4008 27.3787 57.6428 27.3113 57.9285 27.3569C58.2657 27.3113 58.5296 27.3351 58.722 27.4303C58.958 27.5711 59.0533 27.7398 59.0076 27.9302C59.0533 28.077 58.9858 28.2218 58.7894 28.3627C58.5534 28.5095 58.2657 28.5829 57.9285 28.5829C57.6864 28.5829 57.4504 28.5095 57.2084 28.3627C57.0179 28.2674 56.8949 28.1504 56.8493 28.0036ZM47.1348 28.2218C47.1784 28.0314 47.3034 27.8846 47.4938 27.7894C47.7358 27.6426 47.9719 27.5711 48.2139 27.5711C48.5512 27.5255 48.8388 27.5711 49.0749 27.716C49.3149 27.8112 49.3883 27.958 49.2931 28.1504C49.3387 28.2893 49.2713 28.4361 49.0749 28.5829C48.8388 28.6781 48.5512 28.7515 48.2139 28.7971C47.9263 28.7971 47.6863 28.7515 47.4938 28.6503C47.2518 28.5095 47.1348 28.3627 47.1348 28.2218ZM68.504 27.1426C68.7003 27.2835 68.7956 27.4521 68.7956 27.6426C68.7956 27.7894 68.6726 27.9302 68.4365 28.077C68.2461 28.2218 68.004 28.2893 67.7164 28.2893C67.3792 28.2893 67.1153 28.2218 66.9249 28.077C66.6829 27.9818 66.5876 27.8628 66.6372 27.716C66.5876 27.5255 66.6829 27.3787 66.9249 27.2835C67.1669 27.1426 67.4248 27.0692 67.7164 27.0692C68.0497 27.0197 68.3135 27.0415 68.504 27.1426ZM70.1624 27.1426C70.3528 27.0415 70.6187 26.9958 70.9559 26.9958C71.2416 26.9522 71.5054 26.9958 71.7435 27.1426C71.8883 27.2379 71.9835 27.3787 72.0351 27.5711C72.0351 27.716 71.9398 27.835 71.7435 27.9302C71.4558 28.077 71.192 28.1722 70.9559 28.2218C70.6623 28.2218 70.4044 28.1722 70.1624 28.077C69.9719 27.9302 69.8767 27.7894 69.8767 27.6426C69.8767 27.4521 69.9719 27.2835 70.1624 27.1426ZM61.2394 28.5095C60.9021 28.5095 60.6165 28.4361 60.3745 28.2893C60.184 28.194 60.1106 28.0532 60.1602 27.8628C60.1106 27.716 60.2058 27.5711 60.4479 27.4303C60.6383 27.3351 60.9021 27.2617 61.2394 27.2101C61.5727 27.1665 61.8365 27.2101 62.0269 27.3569C62.269 27.4521 62.3642 27.5989 62.3205 27.7894C62.269 27.9818 62.1519 28.1206 61.9595 28.2218C61.7691 28.3627 61.527 28.4579 61.2394 28.5095ZM63.6854 27.3569C63.9274 27.2617 64.1635 27.1883 64.4055 27.1426C64.7427 27.1426 65.0304 27.2101 65.2664 27.3569C65.4113 27.4521 65.4847 27.5711 65.4847 27.716C65.5303 27.9084 65.4628 28.077 65.2664 28.2218C65.074 28.319 64.7884 28.3627 64.4055 28.3627C64.1635 28.3627 63.9274 28.319 63.6854 28.2218C63.4949 28.1206 63.3719 27.9818 63.3263 27.7894C63.3719 27.6426 63.4949 27.5037 63.6854 27.3569ZM97.7963 26.7836C97.7963 26.9244 97.6991 27.0931 97.5087 27.2835C97.3619 27.3787 97.104 27.4303 96.7152 27.4303C96.4751 27.4739 96.2391 27.4303 95.997 27.2835C95.8046 27.1883 95.6876 27.0415 95.636 26.851C95.636 26.7102 95.7312 26.5912 95.9236 26.49C96.1657 26.2995 96.4295 26.2043 96.7152 26.2043C97.0028 26.2043 97.2667 26.2539 97.5087 26.3491C97.6495 26.4463 97.7448 26.5912 97.7963 26.7836ZM98.8755 26.7836C98.8755 26.6368 98.9925 26.49 99.2346 26.3491C99.425 26.2043 99.6452 26.1091 99.8813 26.0635C100.264 26.0635 100.556 26.1309 100.746 26.2777C100.939 26.3729 101.012 26.49 100.96 26.6368C101.012 26.8272 100.939 26.9958 100.746 27.1426C100.556 27.2835 100.292 27.3569 99.9547 27.3569C99.667 27.3569 99.425 27.3113 99.2346 27.2101C98.9925 27.0692 98.8755 26.9244 98.8755 26.7836ZM91.1051 27.4303C90.9087 27.5255 90.627 27.5989 90.2401 27.6426C89.9981 27.6426 89.7621 27.5711 89.52 27.4303C89.3276 27.3351 89.2106 27.2101 89.159 27.0692C89.2106 26.8788 89.3276 26.732 89.52 26.6368C89.7621 26.49 89.9981 26.3948 90.2401 26.3491C90.5774 26.3491 90.8412 26.3948 91.0317 26.49C91.2677 26.6368 91.3689 26.7836 91.3193 26.9244C91.3689 27.1149 91.2955 27.2835 91.1051 27.4303ZM94.6302 26.851C94.5846 27.0415 94.4616 27.2101 94.2712 27.3569C94.0787 27.4521 93.8367 27.5255 93.5511 27.5711C93.2138 27.5711 92.95 27.5255 92.7575 27.4303C92.5155 27.2835 92.4263 27.1426 92.4719 26.9958C92.4263 26.8054 92.4937 26.6368 92.6842 26.49C92.9262 26.3491 93.2138 26.2777 93.5511 26.2777C93.8367 26.2777 94.0787 26.3214 94.2712 26.4225C94.4616 26.5197 94.5846 26.6586 94.6302 26.851ZM99.1612 39.807C98.9707 39.7118 98.9033 39.5928 98.9489 39.446C98.9489 39.2556 99.0203 39.0869 99.1612 38.9461C99.4032 38.8509 99.6908 38.7775 100.028 38.7279C100.264 38.7279 100.482 38.7775 100.675 38.8727C100.915 39.0195 101.062 39.1603 101.107 39.3071C101.062 39.4976 100.939 39.6384 100.746 39.7396C100.506 39.8804 100.264 39.9757 100.028 40.0253C99.6908 40.0253 99.4032 39.9519 99.1612 39.807ZM96.0685 39.8804C95.8284 39.7832 95.6876 39.6662 95.636 39.5194C95.6876 39.329 95.8046 39.1603 95.997 39.0195C96.1875 38.9183 96.4513 38.8509 96.7886 38.7993C97.1258 38.7993 97.3619 38.8509 97.5087 38.9461C97.7448 39.0413 97.8916 39.1881 97.9411 39.3786C97.8459 39.571 97.6991 39.7396 97.5087 39.8804C97.3182 39.9757 97.0524 40.0491 96.7152 40.0987C96.4751 40.0987 96.2609 40.0253 96.0685 39.8804ZM94.6302 39.5194C94.6302 39.6662 94.535 39.807 94.3426 39.9519C94.1462 40.0491 93.8883 40.1225 93.5511 40.1661C93.309 40.1661 93.067 40.1225 92.8309 40.0253C92.6405 39.93 92.5155 39.7832 92.4719 39.5928C92.4719 39.4024 92.5889 39.2337 92.8309 39.0869C93.0214 38.9461 93.2634 38.8965 93.5511 38.9461C93.7871 38.8965 94.0291 38.9461 94.2712 39.0869C94.4616 39.1881 94.5846 39.329 94.6302 39.5194ZM89.5934 40.0987C89.3514 39.9519 89.2106 39.807 89.159 39.6662C89.2106 39.4758 89.3276 39.329 89.52 39.2337C89.7621 39.0869 90.0477 39.0195 90.385 39.0195C90.6726 39.0195 90.9087 39.0869 91.1051 39.2337C91.2955 39.329 91.4145 39.446 91.4641 39.5928C91.4145 39.7396 91.2677 39.8804 91.0317 40.0253C90.8412 40.1661 90.5774 40.2395 90.2401 40.2395C89.9981 40.2395 89.7839 40.1939 89.5934 40.0987ZM88.1532 39.6662C88.1532 39.8566 88.058 40.0253 87.8676 40.1661C87.6255 40.2673 87.3895 40.3347 87.1474 40.3863C86.8102 40.3863 86.5226 40.3129 86.2805 40.1661C86.0405 40.0709 85.973 39.9519 86.0683 39.807C86.0167 39.571 86.0901 39.4242 86.2805 39.3786C86.5226 39.2337 86.7864 39.1365 87.074 39.0869C87.3617 39.0869 87.6255 39.1365 87.8676 39.2337C88.058 39.3786 88.1532 39.5194 88.1532 39.6662ZM84.9157 39.807C84.9157 39.9082 84.8205 40.0253 84.6281 40.1661C84.4317 40.3129 84.1738 40.4081 83.8365 40.4597C83.5489 40.4597 83.285 40.3863 83.043 40.2395C82.8526 40.1443 82.7554 40.0253 82.7554 39.8804C82.7554 39.688 82.8744 39.5194 83.1164 39.3786C83.3069 39.2337 83.5489 39.1881 83.8365 39.2337C84.1738 39.1881 84.4317 39.2337 84.6281 39.3786C84.8205 39.4758 84.9157 39.6146 84.9157 39.807ZM81.6762 39.807C81.6762 39.9975 81.6028 40.1661 81.458 40.3129C81.1703 40.4597 80.8847 40.5033 80.597 40.4597C80.355 40.5033 80.113 40.4597 79.8769 40.3129C79.6865 40.2177 79.5913 40.0709 79.5913 39.8804C79.5397 39.7832 79.6369 39.6662 79.8769 39.5194C80.0693 39.3786 80.3114 39.2774 80.597 39.2337C80.8847 39.2774 81.1485 39.3508 81.3905 39.446C81.5314 39.5472 81.6326 39.6662 81.6762 39.807ZM78.5121 39.9519C78.5121 40.0987 78.3931 40.2673 78.151 40.4597C77.9546 40.5033 77.6968 40.5549 77.3595 40.5986C77.0719 40.5986 76.8298 40.5549 76.6394 40.4597C76.449 40.3585 76.324 40.2177 76.2803 40.0253C76.324 39.8348 76.449 39.688 76.6394 39.5928C76.8298 39.446 77.0957 39.3786 77.4329 39.3786C77.7186 39.3786 77.9546 39.4242 78.151 39.5194C78.3931 39.6146 78.5121 39.7614 78.5121 39.9519ZM75.2726 40.0987C75.2726 40.2395 75.1774 40.3585 74.981 40.4597C74.6933 40.5986 74.4354 40.6958 74.1934 40.7454C73.9018 40.6958 73.6657 40.6283 73.4733 40.5272C73.2333 40.3863 73.1142 40.2673 73.1142 40.1661C73.1142 39.9757 73.2095 39.807 73.4019 39.6662C73.5923 39.5194 73.8562 39.4758 74.1934 39.5194C74.4811 39.4758 74.7449 39.5194 74.981 39.6662C75.1774 39.7614 75.2726 39.9082 75.2726 40.0987ZM83.043 26.7836C83.2335 26.6368 83.4755 26.5634 83.7631 26.5634C84.1004 26.5634 84.386 26.6368 84.6281 26.7836C84.8205 26.8788 84.8919 26.9958 84.8423 27.1426C84.8919 27.2835 84.8205 27.4303 84.6281 27.5711C84.386 27.716 84.1222 27.7894 83.8365 27.7894C83.5489 27.7894 83.3069 27.7398 83.1164 27.6426C82.8744 27.5037 82.7554 27.3569 82.7554 27.2101C82.801 27.0197 82.8962 26.8788 83.043 26.7836ZM86.2805 26.6368C86.473 26.5416 86.7368 26.49 87.074 26.49C87.3617 26.49 87.6017 26.5416 87.7942 26.6368C87.9846 26.732 88.1076 26.8788 88.1532 27.0692C88.1532 27.2101 88.0302 27.3569 87.7942 27.5037C87.6017 27.5989 87.3617 27.6723 87.074 27.716C86.7368 27.6723 86.473 27.5989 86.2805 27.5037C86.0901 27.4025 85.9949 27.2835 85.9949 27.1426C85.9492 26.9522 86.0405 26.7836 86.2805 26.6368ZM79.6587 27.5711L79.5913 27.4303C79.5913 27.3351 79.5913 27.2379 79.5913 27.1426C79.6369 27.0415 79.7083 26.974 79.8055 26.9244C79.9959 26.7836 80.2598 26.7102 80.597 26.7102C80.8847 26.6586 81.1485 26.7102 81.3905 26.851C81.581 26.9522 81.7 27.0931 81.7496 27.2835C81.6544 27.4303 81.5314 27.5711 81.3905 27.716C81.1485 27.8112 80.8847 27.8628 80.597 27.8628C80.2598 27.9084 79.9959 27.8628 79.8055 27.716C79.7083 27.6723 79.6587 27.6207 79.6587 27.5711Z" fill="#A9C4EA"/>
</svg>
