<svg width="140" height="164" viewBox="0 0 140 164" fill="none" xmlns="http://www.w3.org/2000/svg">
<path d="M19.0586 25.4946H117.526V98.8543H19.0586V25.4946Z" fill="#4A53E2"/>
<path d="M128.104 139.885H8.48047L19.0586 98.8545H117.526L128.104 139.885Z" fill="#4A53E2"/>
<path d="M128.392 144.962H8.19238L8.48047 139.885H128.104L128.392 144.962Z" fill="#1B136A"/>
<path d="M21.8574 27.5791H114.727V94.6359H21.8574V27.5791Z" fill="#E5E5FF"/>
<path d="M34.6425 106.001H22.9482L24.0582 102.345H35.2332L34.6425 106.001Z" fill="#1B136A"/>
<path d="M22.9482 106.001V104.985L30.9094 103.695L35.2332 101.331V102.345L30.3756 104.985L22.9482 106.001Z" fill="#1B136A"/>
<path d="M34.6425 104.985H22.9482L24.0582 101.331H35.2332L34.6425 104.985Z" fill="#B4B2FA"/>
<path d="M49.8243 106.001H38.1289L39.2401 102.345H50.415L49.8243 106.001Z" fill="#1B136A"/>
<path d="M38.1289 106.001V104.985L46.0901 103.695L50.415 101.331V102.345L45.5563 104.985L38.1289 106.001Z" fill="#1B136A"/>
<path d="M49.8243 104.985H38.1289L39.2401 101.331H50.415L49.8243 104.985Z" fill="#B4B2FA"/>
<path d="M65.0048 106.001H53.3105L54.4205 102.345H65.5955L65.0048 106.001Z" fill="#1B136A"/>
<path d="M53.3105 106.001V104.985L61.2717 103.695L65.5955 101.331V102.345L60.7379 104.985L53.3105 106.001Z" fill="#1B136A"/>
<path d="M65.0048 104.985H53.3105L54.4205 101.331H65.5955L65.0048 104.985Z" fill="#B4B2FA"/>
<path d="M100.132 106.001H111.827L110.716 102.345H99.541L100.132 106.001Z" fill="#1B136A"/>
<path d="M111.827 106.001V104.985L103.865 103.695L99.541 101.331V102.345L104.4 104.985L111.827 106.001Z" fill="#1B136A"/>
<path d="M100.132 104.985H111.827L110.716 101.331H99.541L100.132 104.985Z" fill="#B4B2FA"/>
<path d="M84.9511 106.001H96.6453L95.5353 102.345H84.3604L84.9511 106.001Z" fill="#1B136A"/>
<path d="M96.6453 106.001V104.985L88.6841 103.695L84.3604 101.331V102.345L89.2179 104.985L96.6453 106.001Z" fill="#1B136A"/>
<path d="M84.9511 104.985H96.6453L95.5353 101.331H84.3604L84.9511 104.985Z" fill="#B4B2FA"/>
<path d="M69.7694 106.001H81.4648L80.3548 102.345H69.1787L69.7694 106.001Z" fill="#1B136A"/>
<path d="M81.4648 106.001V104.985L73.5037 103.695L69.1787 101.331V102.345L74.0375 104.985L81.4648 106.001Z" fill="#1B136A"/>
<path d="M69.7694 104.985H81.4648L80.3548 101.331H69.1787L69.7694 104.985Z" fill="#B4B2FA"/>
<path d="M32.9292 113.518H20.5342L21.712 109.864H33.555L32.9292 113.518Z" fill="#1B136A"/>
<path d="M20.5342 113.518V112.503L28.9723 111.212L33.555 108.848V109.864L28.4058 112.503L20.5342 113.518Z" fill="#1B136A"/>
<path d="M32.9292 112.503H20.5342L21.712 108.848H33.555L32.9292 112.503Z" fill="#B4B2FA"/>
<path d="M49.0179 113.518H36.624L37.8006 109.864H49.6437L49.0179 113.518Z" fill="#1B136A"/>
<path d="M36.624 113.518V112.503L45.0609 111.212L49.6437 108.848V109.864L44.4944 112.503L36.624 113.518Z" fill="#1B136A"/>
<path d="M49.0179 112.503H36.624L37.8006 108.848H49.6437L49.0179 112.503Z" fill="#B4B2FA"/>
<path d="M65.1058 113.518H52.7119L53.8885 109.864H65.7316L65.1058 113.518Z" fill="#1B136A"/>
<path d="M52.7119 113.518V112.503L61.1488 111.212L65.7316 108.848V109.864L60.5835 112.503L52.7119 113.518Z" fill="#1B136A"/>
<path d="M65.1058 112.503H52.7119L53.8885 108.848H65.7316L65.1058 112.503Z" fill="#B4B2FA"/>
<path d="M102.332 113.518H114.727L113.549 109.864H101.706L102.332 113.518Z" fill="#1B136A"/>
<path d="M114.727 113.518V112.503L106.289 111.212L101.706 108.848V109.864L106.855 112.503L114.727 113.518Z" fill="#1B136A"/>
<path d="M102.332 112.503H114.727L113.549 108.848H101.706L102.332 112.503Z" fill="#B4B2FA"/>
<path d="M86.244 113.518H98.639L97.4613 109.864H85.6182L86.244 113.518Z" fill="#1B136A"/>
<path d="M98.639 113.518V112.503L90.2009 111.212L85.6182 108.848V109.864L90.7674 112.503L98.639 113.518Z" fill="#1B136A"/>
<path d="M86.244 112.503H98.639L97.4613 108.848H85.6182L86.244 112.503Z" fill="#B4B2FA"/>
<path d="M70.1561 113.518H82.5499L81.3734 109.864H69.5303L70.1561 113.518Z" fill="#1B136A"/>
<path d="M82.5499 113.518V112.503L74.1131 111.212L69.5303 108.848V109.864L74.6796 112.503L82.5499 113.518Z" fill="#1B136A"/>
<path d="M70.1561 112.503H82.5499L81.3734 108.848H69.5303L70.1561 112.503Z" fill="#B4B2FA"/>
<path d="M31.9052 121.035H19.0586L20.2775 117.38H32.554L31.9052 121.035Z" fill="#1B136A"/>
<path d="M19.0586 121.035V120.02L27.8041 118.729L32.554 116.365V117.381L27.2171 120.02L19.0586 121.035Z" fill="#1B136A"/>
<path d="M31.9052 120.02H19.0586L20.2775 116.365H32.554L31.9052 120.02Z" fill="#B4B2FA"/>
<path d="M48.5809 121.035H35.7344L36.9545 117.38H49.2297L48.5809 121.035Z" fill="#1B136A"/>
<path d="M35.7344 121.035V120.02L44.4799 118.729L49.2297 116.365V117.381L43.8928 120.02L35.7344 121.035Z" fill="#1B136A"/>
<path d="M48.5809 120.02H35.7344L36.9545 116.365H49.2297L48.5809 120.02Z" fill="#B4B2FA"/>
<path d="M65.2557 121.035H52.4092L53.6293 117.38H65.9045L65.2557 121.035Z" fill="#1B136A"/>
<path d="M52.4092 121.035V120.02L61.1547 118.729L65.9045 116.365V117.381L60.5689 120.02L52.4092 121.035Z" fill="#1B136A"/>
<path d="M65.2557 120.02H52.4092L53.6293 116.365H65.9045L65.2557 120.02Z" fill="#B4B2FA"/>
<path d="M103.843 121.035H116.69L115.47 117.38H103.194L103.843 121.035Z" fill="#1B136A"/>
<path d="M116.69 121.035V120.02L107.944 118.729L103.194 116.365V117.381L108.53 120.02L116.69 121.035Z" fill="#1B136A"/>
<path d="M103.843 120.02H116.69L115.47 116.365H103.194L103.843 120.02Z" fill="#B4B2FA"/>
<path d="M87.1664 121.035H100.013L98.794 117.38H86.5176L87.1664 121.035Z" fill="#1B136A"/>
<path d="M100.013 121.035V120.02L91.2674 118.729L86.5176 116.365V117.381L91.8545 120.02L100.013 121.035Z" fill="#1B136A"/>
<path d="M87.1664 120.02H100.013L98.794 116.365H86.5176L87.1664 120.02Z" fill="#B4B2FA"/>
<path d="M70.4916 121.035H83.3381L82.118 117.38H69.8428L70.4916 121.035Z" fill="#1B136A"/>
<path d="M83.3381 121.035V120.02L74.5926 118.729L69.8428 116.365V117.381L75.1797 120.02L83.3381 121.035Z" fill="#1B136A"/>
<path d="M70.4916 120.02H83.3381L82.118 116.365H69.8428L70.4916 120.02Z" fill="#B4B2FA"/>
<path d="M85.4984 137.62H51.0864C50.0043 137.62 49.163 136.676 49.2877 135.6L50.4642 125.483C50.5707 124.571 51.343 123.882 52.263 123.882H84.3219C85.2406 123.882 86.0141 124.571 86.1206 125.483L87.296 135.6C87.4218 136.676 86.5806 137.62 85.4984 137.62Z" fill="#1B136A"/>
<path d="M84.3422 137.159H52.2421C51.2314 137.159 50.447 136.278 50.5644 135.274L51.6611 125.838C51.7603 124.986 52.4818 124.343 53.3388 124.343H83.2455C84.1025 124.343 84.8239 124.986 84.9232 125.838L86.0198 135.274C86.1373 136.278 85.3529 137.159 84.3422 137.159Z" fill="#B4B2FA"/>
<path d="M40.1114 33.0979H26.7068C26.1016 33.0979 25.6113 32.6077 25.6113 32.0025C25.6113 31.3984 26.1016 30.9082 26.7068 30.9082H40.1114C40.7154 30.9082 41.2056 31.3984 41.2056 32.0025C41.2056 32.6077 40.7154 33.0979 40.1114 33.0979Z" fill="#B4B2FA"/>
<path d="M25.6113 35.1265H111.165V53.6997H25.6113V35.1265Z" fill="#B4B2FA"/>
<path d="M25.6113 57.5576H65.5951V90.7035H25.6113V57.5576Z" fill="#B4B2FA"/>
<path d="M70.4043 57.5576H111.891V90.7035H70.4043V57.5576Z" fill="#B4B2FA"/>
<mask id="mask0_135_6203" style="mask-type:luminance" maskUnits="userSpaceOnUse" x="40" y="0" width="56" height="33">
<path d="M40.9365 0.405762H95.7847V32.938H40.9365V0.405762Z" fill="white"/>
</mask>
<g mask="url(#mask0_135_6203)">
<path d="M87.2257 14.4035C86.9981 7.9929 79.998 4.16665 74.4917 7.36467C72.0768 3.20555 67.5763 0.405762 62.421 0.405762C54.7346 0.405762 48.3579 6.67471 48.4729 14.5669C44.3223 15.4554 41.209 19.1436 41.209 23.5606C41.209 28.6396 45.3257 32.7576 50.4048 32.7576H86.3711C91.4502 32.7576 95.5669 28.6396 95.5669 23.5606C95.5669 18.7684 91.9029 14.8344 87.2257 14.4035Z" fill="#FFAA00"/>
</g>
<path d="M60.9077 21.0575C59.8304 20.1957 58.689 19.4476 57.6153 18.6027C58.5631 17.891 59.5121 17.1816 60.4707 16.4856C62.1375 15.2776 60.5022 12.4754 58.8475 13.7088C57.3078 14.8551 55.7451 15.9663 54.1873 17.0884C53.3448 17.6936 53.0422 18.8714 53.8544 19.6727C55.4716 21.2681 57.395 22.7727 59.6827 23.1613C60.7673 23.3453 61.9996 21.9327 60.9077 21.0575Z" fill="#FF6A00"/>
<path d="M73.1629 21.0575C74.239 20.1957 75.3805 19.4476 76.4542 18.6027C75.5076 17.891 74.5586 17.1816 73.5987 16.4856C71.9331 15.2776 73.5672 12.4754 75.2219 13.7088C76.7616 14.8551 78.3243 15.9663 79.8822 17.0884C80.7247 17.6936 81.0285 18.8714 80.2163 19.6727C78.5991 21.2681 76.6745 22.7727 74.3867 23.1613C73.3021 23.3453 72.0699 21.9327 73.1629 21.0575Z" fill="#FF6A00"/>
<path d="M68.9948 11.9306C68.9197 11.0675 67.6742 10.524 67.2118 11.4476C66.178 13.5114 65.9093 16.155 65.4264 18.4029C65.1649 19.6218 64.901 20.8407 64.6444 22.0609C64.4108 23.166 63.952 24.299 64.3854 25.3872C64.6977 26.1728 65.6987 26.617 66.3693 25.9113C67.1973 25.0374 67.2215 23.9673 67.4188 22.8259C67.5846 21.8611 68.4464 16.7639 68.6353 15.4155C68.7951 14.2764 69.094 13.0781 68.9948 11.9306Z" fill="#FF6A00"/>
<path d="M52.1319 5.95222C48.992 7.88774 47.5116 12.0408 48.6955 15.5221C45.0968 15.3441 41.86 18.3279 41.5852 21.1834C41.5574 21.469 41.998 21.5126 42.0731 21.25C42.2958 20.4753 42.5463 19.7514 42.9942 19.0736C44.2616 17.1538 46.668 15.8465 49.1349 16.1527C49.3152 16.1757 49.4895 15.9433 49.4217 15.7763C48.0793 12.4693 49.3903 8.34771 52.4309 6.46303C52.7529 6.2621 52.4576 5.75129 52.1319 5.95222Z" fill="#1B136A"/>
<path d="M61.489 0.990359C61.2287 0.866892 60.8922 0.946782 60.6138 0.966149C58.2571 1.13198 58.291 1.10414 58.0743 1.18887C57.8988 1.25787 57.8625 1.53022 58.0743 1.58348C58.3043 1.64037 58.2631 1.62343 60.6138 1.48665C60.8813 1.47212 61.2578 1.5157 61.489 1.3656C61.6149 1.28329 61.6439 1.06541 61.489 0.990359Z" fill="#1B136A"/>
<path d="M93.0275 18.2103C92.1451 15.8511 89.8973 14.2049 87.5611 14.079C87.273 14.0633 87.2827 14.493 87.5611 14.5209C89.8464 14.7581 91.7856 16.3644 92.507 18.3532C92.6147 18.6509 92.6547 19.0092 92.8302 19.2755C92.9222 19.4159 93.1764 19.4135 93.2151 19.2259C93.2829 18.8858 93.1449 18.525 93.0275 18.2103Z" fill="#1B136A"/>
<path d="M17.0154 47.9512H54.7404C54.9789 47.9512 55.2149 47.9742 55.4486 48.0214C55.6834 48.0674 55.9097 48.1364 56.13 48.2272C56.3503 48.3192 56.5598 48.4305 56.7583 48.5637C56.9568 48.6956 57.1408 48.8469 57.309 49.0152C57.4773 49.1846 57.6286 49.3674 57.7605 49.5659C57.8937 49.7644 58.005 49.9738 58.097 50.1941C58.1878 50.4144 58.2568 50.642 58.3028 50.8756C58.35 51.1105 58.373 51.3465 58.373 51.585V75.6851C58.373 75.9236 58.35 76.1596 58.3028 76.3945C58.2568 76.6281 58.1878 76.8556 58.097 77.0759C58.005 77.2962 57.8937 77.5057 57.7605 77.7042C57.6286 77.9027 57.4773 78.0855 57.309 78.2549C57.1408 78.4232 56.9568 78.5733 56.7583 78.7064C56.5598 78.8384 56.3503 78.9509 56.13 79.0417C55.9097 79.1337 55.6834 79.2027 55.4486 79.2487C55.2149 79.2959 54.9789 79.3189 54.7404 79.3189H17.0154C16.7769 79.3189 16.5409 79.2959 16.3073 79.2487C16.0737 79.2027 15.8461 79.1337 15.6258 79.0417C15.4055 78.9509 15.1961 78.8384 14.9976 78.7064C14.799 78.5733 14.6151 78.4232 14.4468 78.2549C14.2785 78.0855 14.1272 77.9027 13.9953 77.7042C13.8622 77.5057 13.7508 77.2962 13.6588 77.0759C13.568 76.8556 13.499 76.6281 13.453 76.3945C13.4058 76.1596 13.3828 75.9236 13.3828 75.6851V51.585C13.3828 51.3465 13.4058 51.1105 13.453 50.8756C13.499 50.642 13.568 50.4144 13.6588 50.1941C13.7508 49.9738 13.8622 49.7644 13.9953 49.5659C14.1272 49.3674 14.2785 49.1846 14.4468 49.0152C14.6151 48.8469 14.799 48.6956 14.9976 48.5637C15.1961 48.4305 15.4055 48.3192 15.6258 48.2272C15.8461 48.1364 16.0737 48.0674 16.3073 48.0214C16.5409 47.9742 16.7769 47.9512 17.0154 47.9512Z" fill="#FF6A00"/>
<path d="M28.2473 52.6201H54.0844C54.1764 52.6201 54.266 52.6383 54.3507 52.6734C54.4367 52.7085 54.5117 52.7593 54.5771 52.8247C54.6424 52.89 54.6933 52.9651 54.7284 53.051C54.7647 53.137 54.7816 53.2253 54.7816 53.3185V53.5885C54.7816 53.6817 54.7647 53.7713 54.7284 53.856C54.6933 53.9419 54.6437 54.017 54.5771 54.0823C54.5117 54.1477 54.4367 54.1986 54.3507 54.2337C54.266 54.27 54.1764 54.2869 54.0844 54.2869H28.2473C28.1553 54.2869 28.0657 54.27 27.9798 54.2337C27.895 54.1986 27.8188 54.1477 27.7534 54.0823C27.688 54.017 27.6384 53.9419 27.6021 53.856C27.567 53.7713 27.5488 53.6817 27.5488 53.5885V53.3185C27.5488 53.2253 27.567 53.137 27.6021 53.051C27.6384 52.9651 27.688 52.89 27.7534 52.8247C27.8188 52.7593 27.895 52.7085 27.9798 52.6734C28.0657 52.6383 28.1553 52.6201 28.2473 52.6201Z" fill="#FFAA00"/>
<path d="M16.7207 52.6201H24.7121C24.8041 52.6201 24.8937 52.6383 24.9796 52.6734C25.0643 52.7085 25.1406 52.7593 25.206 52.8247C25.2713 52.89 25.3222 52.9651 25.3573 53.051C25.3924 53.137 25.4105 53.2253 25.4105 53.3185V53.5885C25.4105 53.6817 25.3924 53.7713 25.3573 53.856C25.3222 53.9419 25.2713 54.017 25.206 54.0823C25.1406 54.1477 25.0643 54.1986 24.9796 54.2337C24.8937 54.27 24.8041 54.2869 24.7121 54.2869H16.7207C16.6287 54.2869 16.5391 54.27 16.4544 54.2337C16.3684 54.1986 16.2934 54.1477 16.2268 54.0823C16.1614 54.017 16.1118 53.9419 16.0755 53.856C16.0404 53.7713 16.0234 53.6817 16.0234 53.5885V53.3185C16.0234 53.2253 16.0404 53.137 16.0755 53.051C16.1118 52.9651 16.1614 52.89 16.2268 52.8247C16.2934 52.7593 16.3684 52.7085 16.4544 52.6734C16.5391 52.6383 16.6287 52.6201 16.7207 52.6201Z" fill="#E5E5FF"/>
<path d="M28.2473 57.1216H38.1355C38.2275 57.1216 38.317 57.1397 38.403 57.1748C38.4877 57.2099 38.564 57.2608 38.6293 57.3261C38.6947 57.3915 38.7455 57.4678 38.7806 57.5525C38.8158 57.6384 38.8339 57.728 38.8339 57.82V58.0912C38.8339 58.1832 38.8158 58.2727 38.7806 58.3575C38.7455 58.4434 38.6947 58.5184 38.6293 58.585C38.564 58.6504 38.4877 58.7 38.403 58.7363C38.317 58.7714 38.2275 58.7896 38.1355 58.7896H28.2473C28.1553 58.7896 28.0657 58.7714 27.9798 58.7363C27.895 58.7 27.8188 58.6504 27.7534 58.585C27.688 58.5184 27.6384 58.4434 27.6021 58.3575C27.567 58.2727 27.5488 58.1832 27.5488 58.0912V57.82C27.5488 57.728 27.567 57.6384 27.6021 57.5525C27.6384 57.4678 27.688 57.3915 27.7534 57.3261C27.8188 57.2608 27.895 57.2099 27.9798 57.1748C28.0657 57.1397 28.1553 57.1216 28.2473 57.1216Z" fill="#FFAA00"/>
<path d="M40.4728 57.1216H54.0844C54.1764 57.1216 54.266 57.1397 54.3507 57.1748C54.4367 57.2099 54.5117 57.2608 54.5771 57.3261C54.6424 57.3915 54.6933 57.4678 54.7284 57.5525C54.7647 57.6384 54.7816 57.728 54.7816 57.82V58.0912C54.7816 58.1832 54.7647 58.2727 54.7284 58.3575C54.6933 58.4434 54.6437 58.5184 54.5771 58.585C54.5117 58.6504 54.4367 58.7 54.3507 58.7363C54.266 58.7714 54.1764 58.7896 54.0844 58.7896H40.4728C40.3809 58.7896 40.2913 58.7714 40.2053 58.7363C40.1206 58.7 40.0443 58.6504 39.979 58.585C39.9136 58.5184 39.8628 58.4434 39.8277 58.3575C39.7926 58.2727 39.7744 58.1832 39.7744 58.0912V57.82C39.7744 57.728 39.7926 57.6384 39.8277 57.5525C39.8628 57.4678 39.9136 57.3915 39.979 57.3261C40.0443 57.2608 40.1206 57.2099 40.2053 57.1748C40.2913 57.1397 40.3809 57.1216 40.4728 57.1216Z" fill="#FFAA00"/>
<path d="M28.2473 60.9985H54.0844C54.1764 60.9985 54.266 61.0155 54.3507 61.0518C54.4367 61.0869 54.5117 61.1377 54.5771 61.2031C54.6424 61.2685 54.6933 61.3435 54.7284 61.4295C54.7647 61.5154 54.7816 61.6038 54.7816 61.697V61.9669C54.7816 62.0601 54.7647 62.1485 54.7284 62.2344C54.6933 62.3204 54.6437 62.3954 54.5771 62.4608C54.5117 62.5261 54.4367 62.577 54.3507 62.6121C54.266 62.6484 54.1764 62.6653 54.0844 62.6653H28.2473C28.1553 62.6653 28.0657 62.6484 27.9798 62.6121C27.895 62.577 27.8188 62.5261 27.7534 62.4608C27.688 62.3954 27.6384 62.3204 27.6021 62.2344C27.567 62.1485 27.5488 62.0601 27.5488 61.9669V61.697C27.5488 61.6038 27.567 61.5154 27.6021 61.4295C27.6384 61.3435 27.688 61.2685 27.7534 61.2031C27.8188 61.1377 27.895 61.0869 27.9798 61.0518C28.0657 61.0155 28.1553 60.9985 28.2473 60.9985Z" fill="#E5E5FF"/>
<path d="M16.7207 60.9985H24.7121C24.8041 60.9985 24.8937 61.0155 24.9796 61.0518C25.0643 61.0869 25.1406 61.1377 25.206 61.2031C25.2713 61.2685 25.3222 61.3435 25.3573 61.4295C25.3924 61.5154 25.4105 61.6038 25.4105 61.697V61.9669C25.4105 62.0601 25.3924 62.1485 25.3573 62.2344C25.3222 62.3204 25.2713 62.3954 25.206 62.4608C25.1406 62.5261 25.0643 62.577 24.9796 62.6121C24.8937 62.6484 24.8041 62.6653 24.7121 62.6653H16.7207C16.6287 62.6653 16.5391 62.6484 16.4544 62.6121C16.3684 62.577 16.2934 62.5261 16.2268 62.4608C16.1614 62.3954 16.1118 62.3204 16.0755 62.2344C16.0404 62.1485 16.0234 62.0601 16.0234 61.9669V61.697C16.0234 61.6038 16.0404 61.5154 16.0755 61.4295C16.1118 61.3435 16.1614 61.2685 16.2268 61.2031C16.2934 61.1377 16.3684 61.0869 16.4544 61.0518C16.5391 61.0155 16.6287 60.9985 16.7207 60.9985Z" fill="#FFAA00"/>
<path d="M28.2473 65.5005H38.1355C38.2275 65.5005 38.317 65.5186 38.403 65.5537C38.4877 65.5889 38.564 65.6397 38.6293 65.7051C38.6947 65.7704 38.7455 65.8455 38.7806 65.9314C38.8158 66.0174 38.8339 66.1057 38.8339 66.1989V66.4689C38.8339 66.5621 38.8158 66.6516 38.7806 66.7364C38.7455 66.8223 38.6947 66.8974 38.6293 66.9627C38.564 67.0293 38.4877 67.0789 38.403 67.114C38.317 67.1503 38.2275 67.1673 38.1355 67.1673H28.2473C28.1553 67.1673 28.0657 67.1503 27.9798 67.114C27.895 67.0789 27.8188 67.0293 27.7534 66.9627C27.688 66.8974 27.6384 66.8223 27.6021 66.7364C27.567 66.6516 27.5488 66.5621 27.5488 66.4689V66.1989C27.5488 66.1057 27.567 66.0174 27.6021 65.9314C27.6384 65.8455 27.688 65.7704 27.7534 65.7051C27.8188 65.6397 27.895 65.5889 27.9798 65.5537C28.0657 65.5186 28.1553 65.5005 28.2473 65.5005Z" fill="#E5E5FF"/>
<path d="M40.4728 65.5005H54.0844C54.1764 65.5005 54.266 65.5186 54.3507 65.5537C54.4367 65.5889 54.5117 65.6397 54.5771 65.7051C54.6424 65.7704 54.6933 65.8455 54.7284 65.9314C54.7647 66.0174 54.7816 66.1057 54.7816 66.1989V66.4689C54.7816 66.5621 54.7647 66.6516 54.7284 66.7364C54.6933 66.8223 54.6437 66.8974 54.5771 66.9627C54.5117 67.0293 54.4367 67.0789 54.3507 67.114C54.266 67.1503 54.1764 67.1673 54.0844 67.1673H40.4728C40.3809 67.1673 40.2913 67.1503 40.2053 67.114C40.1206 67.0789 40.0443 67.0293 39.979 66.9627C39.9136 66.8974 39.8628 66.8223 39.8277 66.7364C39.7926 66.6516 39.7744 66.5621 39.7744 66.4689V66.1989C39.7744 66.1057 39.7926 66.0174 39.8277 65.9314C39.8628 65.8455 39.9136 65.7704 39.979 65.7051C40.0443 65.6397 40.1206 65.5889 40.2053 65.5537C40.2913 65.5186 40.3809 65.5005 40.4728 65.5005Z" fill="#FFAA00"/>
<path d="M28.2473 69.3774H54.0844C54.1764 69.3774 54.266 69.3944 54.3507 69.4307C54.4367 69.4658 54.5117 69.5154 54.5771 69.582C54.6424 69.6474 54.6933 69.7224 54.7284 69.8084C54.7647 69.8931 54.7816 69.9827 54.7816 70.0759V70.3458C54.7816 70.439 54.7647 70.5274 54.7284 70.6133C54.6933 70.6993 54.6437 70.7743 54.5771 70.8397C54.5117 70.905 54.4367 70.9559 54.3507 70.991C54.266 71.0261 54.1764 71.0442 54.0844 71.0442H28.2473C28.1553 71.0442 28.0657 71.0261 27.9798 70.991C27.895 70.9559 27.8188 70.905 27.7534 70.8397C27.688 70.7743 27.6384 70.6993 27.6021 70.6133C27.567 70.5274 27.5488 70.439 27.5488 70.3458V70.0759C27.5488 69.9827 27.567 69.8931 27.6021 69.8084C27.6384 69.7224 27.688 69.6474 27.7534 69.582C27.8188 69.5154 27.895 69.4658 27.9798 69.4307C28.0657 69.3944 28.1553 69.3774 28.2473 69.3774Z" fill="#FFAA00"/>
<path d="M16.7207 69.3774H24.7121C24.8041 69.3774 24.8937 69.3944 24.9796 69.4307C25.0643 69.4658 25.1406 69.5154 25.206 69.582C25.2713 69.6474 25.3222 69.7224 25.3573 69.8084C25.3924 69.8931 25.4105 69.9827 25.4105 70.0759V70.3458C25.4105 70.439 25.3924 70.5274 25.3573 70.6133C25.3222 70.6993 25.2713 70.7743 25.206 70.8397C25.1406 70.905 25.0643 70.9559 24.9796 70.991C24.8937 71.0261 24.8041 71.0442 24.7121 71.0442H16.7207C16.6287 71.0442 16.5391 71.0261 16.4544 70.991C16.3684 70.9559 16.2934 70.905 16.2268 70.8397C16.1614 70.7743 16.1118 70.6993 16.0755 70.6133C16.0404 70.5274 16.0234 70.439 16.0234 70.3458V70.0759C16.0234 69.9827 16.0404 69.8931 16.0755 69.8084C16.1118 69.7224 16.1614 69.6474 16.2268 69.582C16.2934 69.5154 16.3684 69.4658 16.4544 69.4307C16.5391 69.3944 16.6287 69.3774 16.7207 69.3774Z" fill="#E5E5FF"/>
<path d="M28.2473 73.8789H38.1355C38.2275 73.8789 38.317 73.8959 38.403 73.9322C38.4877 73.9673 38.564 74.0181 38.6293 74.0835C38.6947 74.1488 38.7455 74.2239 38.7806 74.3098C38.8158 74.3958 38.8339 74.4841 38.8339 74.5773V74.8473C38.8339 74.9405 38.8158 75.0288 38.7806 75.1148C38.7455 75.2007 38.6947 75.2758 38.6293 75.3411C38.564 75.4065 38.4877 75.4573 38.403 75.4924C38.317 75.5288 38.2275 75.5457 38.1355 75.5457H28.2473C28.1553 75.5457 28.0657 75.5288 27.9798 75.4924C27.895 75.4573 27.8188 75.4065 27.7534 75.3411C27.688 75.2758 27.6384 75.2007 27.6021 75.1148C27.567 75.0288 27.5488 74.9405 27.5488 74.8473V74.5773C27.5488 74.4841 27.567 74.3958 27.6021 74.3098C27.6384 74.2239 27.688 74.1488 27.7534 74.0835C27.8188 74.0181 27.895 73.9673 27.9798 73.9322C28.0657 73.8959 28.1553 73.8789 28.2473 73.8789Z" fill="#E5E5FF"/>
<path d="M40.4728 73.8789H54.0844C54.1764 73.8789 54.266 73.8959 54.3507 73.9322C54.4367 73.9673 54.5117 74.0181 54.5771 74.0835C54.6424 74.1488 54.6933 74.2239 54.7284 74.3098C54.7647 74.3958 54.7816 74.4841 54.7816 74.5773V74.8473C54.7816 74.9405 54.7647 75.0288 54.7284 75.1148C54.6933 75.2007 54.6437 75.2758 54.5771 75.3411C54.5117 75.4065 54.4367 75.4573 54.3507 75.4924C54.266 75.5288 54.1764 75.5457 54.0844 75.5457H40.4728C40.3809 75.5457 40.2913 75.5288 40.2053 75.4924C40.1206 75.4573 40.0443 75.4065 39.979 75.3411C39.9136 75.2758 39.8628 75.2007 39.8277 75.1148C39.7926 75.0288 39.7744 74.9405 39.7744 74.8473V74.5773C39.7744 74.4841 39.7926 74.3958 39.8277 74.3098C39.8628 74.2239 39.9136 74.1488 39.979 74.0835C40.0443 74.0181 40.1206 73.9673 40.2053 73.9322C40.2913 73.8959 40.3809 73.8789 40.4728 73.8789Z" fill="#E5E5FF"/>
<path d="M16.1318 78.4535C13.7121 77.9003 14.0196 74.8984 13.9385 72.6094C13.5886 62.7103 13.6007 64.1277 13.4385 60.5992C13.4289 60.3789 13.0899 60.3765 13.0948 60.5992C13.2691 68.1319 13.1698 65.0646 13.4385 73.0258C13.4797 74.2604 13.4022 75.5932 13.7702 76.7867C14.0849 77.8059 14.9129 78.8844 16.0701 78.9074C16.3279 78.9122 16.3884 78.5128 16.1318 78.4535Z" fill="#1B136A"/>
<path d="M30.1448 78.5845C28.9308 78.4041 27.6489 78.5106 26.4251 78.5118C25.8017 78.513 25.1796 78.5142 24.5562 78.5203C23.9715 78.5264 23.2719 78.4283 22.7078 78.5953C22.5323 78.6474 22.5323 78.9004 22.7078 78.9524C23.2707 79.1195 23.9715 79.0226 24.5562 79.0287C25.1796 79.0347 25.8017 79.0347 26.4251 79.036C27.6489 79.0384 28.9308 79.1449 30.1448 78.9633C30.3325 78.9355 30.3325 78.6135 30.1448 78.5845Z" fill="#1B136A"/>
<path d="M79.1797 60.4468H116.183C116.422 60.4468 116.658 60.4698 116.893 60.517C117.126 60.563 117.353 60.632 117.574 60.724C117.794 60.8148 118.004 60.9273 118.201 61.0593C118.4 61.1924 118.584 61.3425 118.752 61.5108C118.921 61.6802 119.071 61.863 119.205 62.0615C119.337 62.26 119.449 62.4694 119.54 62.6898C119.631 62.9101 119.7 63.1376 119.747 63.3712C119.793 63.6061 119.816 63.8421 119.816 64.0806V86.4982C119.816 86.7367 119.793 86.9739 119.747 87.2075C119.7 87.4411 119.631 87.6687 119.54 87.889C119.449 88.1093 119.337 88.3187 119.205 88.5172C119.071 88.7157 118.921 88.8997 118.752 89.068C118.584 89.2362 118.4 89.3875 118.201 89.5195C118.004 89.6526 117.794 89.764 117.574 89.856C117.353 89.9468 117.126 90.0158 116.893 90.063C116.658 90.109 116.422 90.132 116.183 90.132H79.1797C78.94 90.132 78.704 90.109 78.4704 90.063C78.2367 90.0158 78.0092 89.9468 77.7889 89.856C77.5686 89.764 77.3592 89.6526 77.1606 89.5195C76.9621 89.3875 76.7794 89.2362 76.6099 89.068C76.4416 88.8997 76.2903 88.7157 76.1584 88.5172C76.0252 88.3187 75.9139 88.1093 75.8231 87.889C75.7311 87.6687 75.6621 87.4411 75.6161 87.2075C75.5689 86.9739 75.5459 86.7367 75.5459 86.4982V64.0806C75.5459 63.8421 75.5689 63.6061 75.6161 63.3712C75.6621 63.1376 75.7311 62.9101 75.8231 62.6898C75.9139 62.4694 76.0252 62.26 76.1584 62.0615C76.2903 61.863 76.4416 61.6802 76.6099 61.5108C76.7794 61.3425 76.9621 61.1924 77.1606 61.0593C77.3592 60.9273 77.5686 60.8148 77.7889 60.724C78.0092 60.632 78.2367 60.563 78.4704 60.517C78.704 60.4698 78.94 60.4468 79.1797 60.4468Z" fill="#FF6A00"/>
<path d="M115.435 67.3607H91.2404C90.8046 67.3607 90.4512 67.0072 90.4512 66.5714C90.4512 66.1357 90.8046 65.7822 91.2404 65.7822H115.435C115.871 65.7822 116.224 66.1357 116.224 66.5714C116.224 67.0072 115.871 67.3607 115.435 67.3607Z" fill="#FFAA00"/>
<path d="M87.6385 67.3607H80.3322C79.8964 67.3607 79.543 67.0072 79.543 66.5714C79.543 66.1357 79.8964 65.7822 80.3322 65.7822H87.6385C88.0743 65.7822 88.4265 66.1357 88.4265 66.5714C88.4265 67.0072 88.0743 67.3607 87.6385 67.3607Z" fill="#FFAA00"/>
<path d="M115.435 71.6207H91.2404C90.8046 71.6207 90.4512 71.2684 90.4512 70.8327C90.4512 70.3969 90.8046 70.0435 91.2404 70.0435H115.435C115.871 70.0435 116.224 70.3969 116.224 70.8327C116.224 71.2684 115.871 71.6207 115.435 71.6207Z" fill="#FFAA00"/>
<path d="M87.6385 71.6207H80.3322C79.8964 71.6207 79.543 71.2684 79.543 70.8327C79.543 70.3969 79.8964 70.0435 80.3322 70.0435H87.6385C88.0743 70.0435 88.4265 70.3969 88.4265 70.8327C88.4265 71.2684 88.0743 71.6207 87.6385 71.6207Z" fill="#FFAA00"/>
<path d="M115.435 75.8812H91.2404C90.8046 75.8812 90.4512 75.5277 90.4512 75.092C90.4512 74.6562 90.8046 74.3027 91.2404 74.3027H115.435C115.871 74.3027 116.224 74.6562 116.224 75.092C116.224 75.5277 115.871 75.8812 115.435 75.8812Z" fill="#FFAA00"/>
<path d="M87.6385 75.8812H80.3322C79.8964 75.8812 79.543 75.5277 79.543 75.092C79.543 74.6562 79.8964 74.3027 80.3322 74.3027H87.6385C88.0743 74.3027 88.4265 74.6562 88.4265 75.092C88.4265 75.5277 88.0743 75.8812 87.6385 75.8812Z" fill="#FFAA00"/>
<path d="M115.435 80.1419H91.2404C90.8046 80.1419 90.4512 79.7885 90.4512 79.3527C90.4512 78.9169 90.8046 78.5635 91.2404 78.5635H115.435C115.871 78.5635 116.224 78.9169 116.224 79.3527C116.224 79.7885 115.871 80.1419 115.435 80.1419Z" fill="#FFAA00"/>
<path d="M87.6385 80.1419H80.3322C79.8964 80.1419 79.543 79.7885 79.543 79.3527C79.543 78.9169 79.8964 78.5635 80.3322 78.5635H87.6385C88.0743 78.5635 88.4265 78.9169 88.4265 79.3527C88.4265 79.7885 88.0743 80.1419 87.6385 80.1419Z" fill="#FFAA00"/>
<path d="M115.435 84.4031H91.2404C90.8046 84.4031 90.4512 84.0497 90.4512 83.6139C90.4512 83.1782 90.8046 82.8247 91.2404 82.8247H115.435C115.871 82.8247 116.224 83.1782 116.224 83.6139C116.224 84.0497 115.871 84.4031 115.435 84.4031Z" fill="#FFAA00"/>
<path d="M87.6385 84.4031H80.3322C79.8964 84.4031 79.543 84.0497 79.543 83.6139C79.543 83.1782 79.8964 82.8247 80.3322 82.8247H87.6385C88.0743 82.8247 88.4265 83.1782 88.4265 83.6139C88.4265 84.0497 88.0743 84.4031 87.6385 84.4031Z" fill="#FFAA00"/>
<path d="M88.0563 90.1186C87.1969 90.0229 86.3205 90.0338 85.4575 90.0036C84.6126 89.9733 83.7677 89.9418 82.9228 89.9152C80.9316 89.8498 78.3037 90.0326 77.1187 88.4106C76.3234 87.3188 76.3222 85.6677 76.2435 84.3059C75.936 78.969 75.8973 77.8397 75.7315 75.9768C75.7085 75.719 75.3163 75.7093 75.3223 75.9768C75.3611 77.7997 75.4833 79.6227 75.579 81.4432C75.7944 85.5055 75.7932 85.7718 75.8937 86.4932C76.0789 87.8308 76.6284 89.0788 77.8703 89.7373C79.2539 90.4708 80.7125 90.4151 84.937 90.5543C85.9719 90.5894 87.0226 90.6778 88.0563 90.6342C88.394 90.6197 88.3807 90.1537 88.0563 90.1186Z" fill="#1B136A"/>
<path d="M96.0383 89.8197C95.8216 89.7253 95.7526 89.7205 93.0933 89.522C92.9819 89.5135 92.8899 89.6212 92.8887 89.7253C92.8875 89.8464 92.9843 89.9178 93.0933 89.9299C95.8846 90.2446 95.8071 90.2276 95.9911 90.1853C96.1472 90.1502 96.1981 89.8899 96.0383 89.8197Z" fill="#1B136A"/>
<path d="M7.75304 134.916C3.84206 139.172 1.88839 141.301 1.56883 143.586C0.69488 149.818 11.4098 158.74 18.5709 156.908C21.6031 156.132 24.0361 153.417 28.0003 148.994C30.5762 146.118 32.1159 143.675 35.1565 142.445C35.7049 142.224 37.1078 141.522 39.2927 140.71C40.1436 140.394 41.1677 139.924 42.4459 139.141C46.7442 136.508 51.5727 135.169 51.3984 132.418C51.2241 129.668 47.1388 127.391 40.261 130.249C40.261 130.249 45.9054 121.964 49.0865 120.929C52.2675 119.895 53.9513 119.103 53.6559 116.412C53.3594 113.721 48.5018 112.652 42.2038 116.988C42.2038 116.988 49.9713 113.377 50.3562 111.177C50.7399 108.976 48.6107 106.598 39.0009 111.689C39.0009 111.689 45.7759 107.855 42.3745 104.849C38.9719 101.842 29.5098 111.787 29.5098 111.787C29.5098 111.787 34.8914 107.871 32.0348 105.876C30.0242 104.471 23.5398 109.085 19.5925 115.001C15.115 121.711 16.892 125.627 11.5139 131.18C10.3882 132.343 9.62683 132.878 7.75304 134.916Z" fill="#FFAA00"/>
<path d="M30.6084 109.783C27.391 111.326 24.8587 114.065 23.503 117.357C23.4001 117.607 23.6144 117.901 23.8504 117.969C24.1349 118.05 24.36 117.868 24.4617 117.621C25.7194 114.567 28.1403 112.065 31.1107 110.642C31.6869 110.366 31.1834 109.507 30.6084 109.783Z" fill="#1B136A"/>
<path d="M37.9371 111.605C33.7804 113.526 30.3161 116.845 28.2099 120.911C27.9158 121.478 28.774 121.981 29.0681 121.412C31.1053 117.481 34.4208 114.32 38.4395 112.464C39.0193 112.196 38.5145 111.339 37.9371 111.605Z" fill="#1B136A"/>
<path d="M41.7608 116.418C38.4453 118.403 35.9034 121.503 34.5791 125.132C34.36 125.734 35.3211 125.994 35.539 125.396C36.7713 122.016 39.1789 119.123 42.2631 117.276C42.8114 116.948 42.3115 116.088 41.7608 116.418Z" fill="#1B136A"/>
<path d="M7.7434 135.574C5.2656 137.1 3.4015 139.497 2.52634 142.272C2.33388 142.884 3.29377 143.145 3.48623 142.536C4.2815 140.01 5.99066 137.822 8.24453 136.432C8.78802 136.097 8.28932 135.236 7.7434 135.574Z" fill="#1B136A"/>
<path d="M15.2723 126.716C15.0314 126.575 14.7385 126.669 14.592 126.895C13.7278 128.228 12.8647 129.559 12.0004 130.892C11.854 131.117 11.9544 131.441 12.1784 131.572C12.4205 131.714 12.7122 131.619 12.8587 131.394C13.7229 130.061 14.5872 128.729 15.4502 127.396C15.5967 127.171 15.4962 126.848 15.2723 126.716Z" fill="#1B136A"/>
<path d="M47.5959 131.95C47.4688 131.73 47.1383 131.618 46.9168 131.77C45.5212 132.73 44.8263 134.499 45.221 136.151C45.2839 136.411 45.5805 136.567 45.8322 136.497C46.0997 136.425 46.2426 136.149 46.1796 135.886C45.9012 134.718 46.3782 133.345 47.4179 132.63C47.6394 132.477 47.7387 132.193 47.5959 131.95Z" fill="#1B136A"/>
<path d="M29.25 144.358C27.8096 147.397 25.8341 150.14 23.4023 152.462C22.9375 152.905 23.642 153.607 24.1044 153.165C26.5919 150.79 28.6351 147.969 30.1082 144.86C30.3806 144.285 29.5236 143.779 29.25 144.358Z" fill="#1B136A"/>
<path d="M129.793 141.358C133.703 145.614 135.656 147.745 135.977 150.028C136.851 156.26 126.135 165.183 118.975 163.351C115.942 162.575 113.509 159.859 109.544 155.436C106.968 152.561 105.43 150.118 102.388 148.889C101.84 148.667 100.438 147.964 98.252 147.153C97.4023 146.837 96.377 146.366 95.0988 145.583C90.8004 142.95 85.9732 141.613 86.1475 138.861C86.3206 136.11 90.4058 133.834 97.2836 136.691C97.2836 136.691 91.6393 128.407 88.4582 127.373C85.2771 126.337 83.5934 125.546 83.89 122.854C84.1853 120.163 89.0429 119.095 95.3409 123.43C95.3409 123.43 87.5734 119.82 87.1897 117.619C86.8047 115.418 88.9351 113.04 98.5449 118.132C98.5449 118.132 91.7688 114.299 95.1714 111.292C98.5728 108.285 108.035 118.23 108.035 118.23C108.035 118.23 102.653 114.314 105.51 112.318C107.52 110.914 114.005 115.527 117.952 121.444C122.43 128.155 120.654 132.069 126.031 137.623C127.156 138.786 127.919 139.32 129.793 141.358Z" fill="#FFAA00"/>
<path d="M106.937 116.226C110.156 117.768 112.687 120.507 114.043 123.8C114.147 124.05 113.931 124.343 113.696 124.411C113.412 124.493 113.186 124.31 113.084 124.064C111.826 121.01 109.405 118.509 106.436 117.084C105.859 116.808 106.362 115.95 106.937 116.226Z" fill="#1B136A"/>
<path d="M99.6073 118.047C103.764 119.968 107.228 123.289 109.335 127.353C109.629 127.921 108.772 128.424 108.476 127.856C106.439 123.924 103.124 120.764 99.1062 118.907C98.5251 118.638 99.0299 117.781 99.6073 118.047Z" fill="#1B136A"/>
<path d="M95.7838 122.86C99.0992 124.847 101.642 127.947 102.965 131.575C103.185 132.177 102.225 132.436 102.007 131.84C100.773 128.459 98.3657 125.567 95.2827 123.72C94.7343 123.391 95.2331 122.531 95.7838 122.86Z" fill="#1B136A"/>
<path d="M129.802 142.016C132.279 143.543 134.143 145.94 135.018 148.714C135.211 149.327 134.251 149.588 134.06 148.979C133.263 146.453 131.554 144.263 129.3 142.875C128.757 142.54 129.255 141.679 129.802 142.016Z" fill="#1B136A"/>
<path d="M122.272 133.159C122.514 133.017 122.806 133.111 122.952 133.337C123.817 134.669 124.681 136.002 125.544 137.334C125.69 137.56 125.59 137.883 125.366 138.015C125.125 138.155 124.832 138.062 124.686 137.836C123.822 136.503 122.958 135.172 122.094 133.839C121.948 133.614 122.048 133.289 122.272 133.159Z" fill="#1B136A"/>
<path d="M89.9492 138.392C90.0775 138.172 90.4068 138.06 90.6295 138.214C92.024 139.172 92.7188 140.941 92.3241 142.593C92.2624 142.854 91.9659 143.009 91.7129 142.94C91.4466 142.867 91.3025 142.591 91.3655 142.328C91.6451 141.16 91.167 139.787 90.1272 139.072C89.9069 138.919 89.8064 138.635 89.9492 138.392Z" fill="#1B136A"/>
<path d="M108.296 150.801C109.735 153.84 111.712 156.583 114.144 158.905C114.607 159.347 113.903 160.05 113.44 159.609C110.953 157.234 108.91 154.411 107.437 151.303C107.164 150.728 108.021 150.223 108.296 150.801Z" fill="#1B136A"/>
<path d="M22.4582 34.5517C22.417 33.9162 21.422 33.9113 21.4632 34.5517L22.0091 43.1169C22.049 43.7523 23.044 43.7572 23.0029 43.1169L22.4582 34.5517Z" fill="#1B136A"/>
<path d="M90.1128 97.7349L24.218 97.7046C23.5777 97.7046 23.5765 98.6984 24.218 98.6984L90.1128 98.7298C90.7519 98.7298 90.7531 97.7349 90.1128 97.7349Z" fill="#1B136A"/>
<path d="M108.03 97.1755C106.835 97.2409 105.64 97.3074 104.446 97.374C104.178 97.3885 103.948 97.5919 103.948 97.8715C103.948 98.1293 104.177 98.3835 104.446 98.369C105.64 98.3024 106.835 98.2359 108.03 98.1693C108.297 98.1548 108.526 97.9514 108.526 97.6718C108.526 97.414 108.299 97.1598 108.03 97.1755Z" fill="#1B136A"/>
<path d="M14.124 93.5319C9.92498 88.2374 5.72712 82.9416 1.52805 77.6471C1.12981 77.146 0.430169 77.8541 0.824778 78.3504C5.02385 83.6449 9.22291 88.9406 13.4208 94.2352C13.819 94.7363 14.5187 94.0294 14.124 93.5319Z" fill="#1B136A"/>
<path d="M11.025 96.2568C9.633 95.4591 8.23976 94.6614 6.84774 93.8625C6.29093 93.5442 5.7898 94.4036 6.3454 94.722C7.73864 95.5197 9.13066 96.3173 10.5239 97.1162C11.0795 97.4346 11.5818 96.5752 11.025 96.2568Z" fill="#1B136A"/>
<path d="M16.3854 88.4613C15.5901 87.3332 14.7937 86.2051 13.9972 85.0757C13.8422 84.8566 13.5626 84.7537 13.3169 84.8978C13.1002 85.0249 12.9828 85.3577 13.139 85.578C13.9342 86.7062 14.7307 87.8343 15.5272 88.9637C15.6821 89.1828 15.9617 89.2857 16.2075 89.1416C16.4241 89.0145 16.5416 88.6816 16.3854 88.4613Z" fill="#1B136A"/>
<path d="M138.421 80.5792L123.198 93.2091C122.706 93.6182 123.413 94.3191 123.902 93.9124C128.976 89.7024 134.05 85.4924 139.124 81.2825C139.617 80.8734 138.911 80.1725 138.421 80.5792Z" fill="#1B136A"/>
<path d="M134.637 93.8372C134.49 93.5842 134.204 93.5503 133.957 93.6592C132.299 94.3891 130.639 95.119 128.981 95.8489C128.735 95.9579 128.677 96.3162 128.802 96.5292C128.951 96.7834 129.235 96.8161 129.482 96.7084C131.142 95.9772 132.8 95.2473 134.46 94.5174C134.705 94.4097 134.762 94.0502 134.637 93.8372Z" fill="#1B136A"/>
<path d="M34.0558 22.983C32.1288 19.9326 30.2017 16.8811 28.2747 13.8295C27.9334 13.2896 27.0727 13.7883 27.4165 14.3318C29.3435 17.3834 31.2706 20.4337 33.1976 23.4853C33.539 24.0252 34.3996 23.5265 34.0558 22.983Z" fill="#1B136A"/>
<path d="M35.8949 19.1701L34.8999 17.1789C34.7825 16.9465 34.4351 16.8618 34.2196 17.001C33.9812 17.1547 33.9158 17.4319 34.0405 17.6813L35.0367 19.6725C35.1529 19.9049 35.5015 19.9896 35.717 19.8504C35.9554 19.6967 36.0196 19.4195 35.8949 19.1701Z" fill="#1B136A"/>
<path d="M106.536 13.3491C106.175 13.3491 106.017 13.6675 106.064 13.9435C105.907 13.9628 106.033 13.9023 100.712 17.9961C100.499 18.1595 100.385 18.4246 100.533 18.6763C100.655 18.8857 100.999 19.0201 101.213 18.8555C102.939 17.5276 104.664 16.1997 106.389 14.8731C106.562 14.7399 106.667 14.5402 106.621 14.3344C107.173 14.2497 107.147 13.3491 106.536 13.3491Z" fill="#1B136A"/>
<path d="M101.115 9.51181C100.909 9.32298 100.618 9.3254 100.412 9.51181L98.222 11.503C98.0296 11.6785 98.0308 12.0308 98.222 12.2063C98.4278 12.3963 98.7195 12.3939 98.9253 12.2063C99.6552 11.543 100.385 10.8796 101.115 10.2151C101.307 10.0396 101.306 9.68733 101.115 9.51181Z" fill="#1B136A"/>
<path d="M100.292 39.2601C100.749 33.1013 102.934 30.0546 108.882 29.4264C112.147 29.0826 117.721 29.2013 121.29 29.4446C124.813 29.6854 128.816 29.8597 131.696 32.1693C133.882 33.922 134.946 36.878 134.591 39.6342C134.825 41.2864 135.005 43.7194 134.597 46.6028C134.172 49.6071 133.949 51.1928 132.868 52.5328C130.912 54.9585 126.833 54.9186 118.677 54.8387C117.62 54.8278 116.464 54.7406 114.931 54.5748C114.495 55.2309 113.936 55.8869 113.215 56.4716C110.266 58.8659 106.063 58.9252 105.813 58.2413C105.585 57.6179 108.324 57.1168 109.345 53.8933C107.628 53.6694 106.255 53.3595 104.631 52.5231C101.386 50.8514 100.352 47.9076 100.185 44.269C100.109 42.6058 100.168 40.9197 100.292 39.2601Z" fill="#FFAA00"/>
<path d="M105.656 39.4586L105.71 44.0729L108.811 44.0366C109.03 44.7374 109.334 45.4007 109.71 46.0132L107.505 48.2707L110.804 51.4954L113.068 49.1798C113.676 49.5054 114.324 49.7608 115.005 49.9375L115.042 53.1949L119.656 53.1416L119.619 49.8843C120.294 49.6918 120.938 49.4207 121.537 49.0817L123.853 51.3453L127.078 48.0444L124.821 45.8389C125.183 45.2167 125.471 44.5474 125.675 43.8417L128.776 43.8066L128.723 39.1923L125.739 39.2262C125.545 38.4709 125.255 37.7531 124.878 37.091L126.928 34.9932L123.628 31.7686L121.637 33.8058C120.952 33.4063 120.207 33.0977 119.423 32.8931L119.39 30.0703L114.776 30.1236L114.809 32.9464C114.028 33.1691 113.292 33.4947 112.616 33.9099L110.579 31.9199L107.355 35.2196L109.451 37.2689C109.09 37.9407 108.817 38.6633 108.64 39.4235L105.656 39.4586ZM117.156 36.3865C119.928 36.355 122.209 38.5847 122.241 41.3566C122.273 44.1298 120.044 46.4115 117.272 46.4441C114.5 46.4756 112.218 44.246 112.185 41.4728C112.154 38.7009 114.384 36.4179 117.156 36.3865Z" fill="#FF6A00"/>
<path d="M127.844 30.7606C128.611 30.9579 129.272 30.8587 130.568 31.6697C131.418 32.2011 132.142 32.9334 132.712 33.7541C134.894 36.894 134.556 40.972 134.215 44.7281C134.194 44.9641 134.557 44.9544 134.582 44.7232C134.878 42.0203 135.158 39.2447 134.489 36.572C133.412 32.2773 129.8 30.0658 127.839 30.36C127.627 30.3914 127.66 30.7134 127.844 30.7606Z" fill="#1B136A"/>
<path d="M120.232 29.2995C120.357 29.4363 120.611 29.4254 120.783 29.4484L121.918 29.5985C122.069 29.6178 122.279 29.6844 122.427 29.6178C122.469 29.6202 122.512 29.6227 122.554 29.6251C122.734 29.6348 122.767 29.3515 122.593 29.3104C122.554 29.3019 122.515 29.2922 122.478 29.2837C122.363 29.1821 122.151 29.1857 122.01 29.1651L120.881 28.9932C120.695 28.9654 120.439 28.8794 120.27 28.9823C120.154 29.0538 120.145 29.2039 120.232 29.2995Z" fill="#1B136A"/>
</svg>
