<svg width="140" height="140" viewBox="0 0 140 140" fill="none" xmlns="http://www.w3.org/2000/svg">
<mask id="mask0_135_7742" style="mask-type:luminance" maskUnits="userSpaceOnUse" x="0" y="0" width="140" height="140">
<path d="M0 0.810059H140V139.19H0V0.810059Z" fill="white"/>
</mask>
<g mask="url(#mask0_135_7742)">
<path fill-rule="evenodd" clip-rule="evenodd" d="M131.523 139.16H8.47656C3.82812 139.16 0 135.332 0 130.412V9.58793C0 4.66775 3.82812 0.841309 8.47656 0.841309H131.523C136.172 0.841309 140 4.66775 140 9.58793V130.412C140 135.332 136.172 139.16 131.523 139.16ZM59.3359 61.7993H16.1328C13.125 61.7993 10.9375 59.6118 10.9375 56.6057V17.7894C10.9375 14.7816 13.125 12.3223 16.1328 12.3223H59.3359C62.3438 12.3223 64.5312 14.7816 64.5312 17.7894V56.6057C64.5312 59.6118 62.3438 61.7993 59.3359 61.7993ZM91.875 127.679C91.0547 127.679 90.5078 127.132 90.2344 126.585L74.6484 79.8411C74.1016 77.9271 74.375 76.0147 75.1953 74.6475C76.2891 73.5538 77.6562 72.7334 79.2969 72.7334C80.1172 72.7334 80.6641 73.0069 81.4844 73.0069L127.969 88.5878C128.789 88.8612 129.336 89.6815 129.062 90.2284C129.062 91.0487 128.516 91.5956 127.969 91.869L99.8047 98.4298L93.5156 126.312C93.2422 127.132 92.6953 127.406 91.875 127.679ZM79.2969 76.0147C78.75 76.0147 78.2031 76.2864 77.9297 76.5599C77.6562 77.1068 77.6562 77.9271 77.9297 78.7474L91.6016 119.751L96.7969 96.7892C97.0703 95.9689 97.3438 95.6954 98.1641 95.422L121.68 89.9549L80.3906 76.2864C80.1172 76.0147 79.8438 76.0147 79.2969 76.0147ZM94.3359 48.4043C94.0625 48.4043 93.5156 48.4043 93.2422 47.8574L86.6797 41.2983C85.8594 40.7514 85.8594 39.6576 86.6797 39.1108C87.2266 38.2904 88.3203 38.2904 88.8672 39.1108L94.3359 44.5778L112.656 26.2626C113.203 25.7157 114.297 25.7157 114.844 26.2626C115.664 27.0829 115.664 27.9032 114.844 28.7235L95.7031 47.8574C95.4297 48.4043 94.8828 48.4043 94.3359 48.4043ZM50.8594 115.104C50.3125 115.104 50.0391 114.831 49.4922 114.558L37.7344 102.803L25.9766 114.558C25.4297 114.831 25.1562 115.104 24.6094 115.104C24.3359 115.104 23.7891 114.831 23.5156 114.558C22.9688 114.011 22.9688 112.917 23.5156 112.37L35.5469 100.342L23.5156 88.5878C22.9688 87.7674 22.9688 86.9488 23.5156 86.1285C24.0625 85.5816 25.1562 85.5816 25.9766 86.1285L37.7344 98.1564L49.4922 86.1285C50.3125 85.5816 51.4062 85.5816 51.9531 86.1285C52.5 86.9488 52.5 87.7674 51.9531 88.5878L39.9219 100.342L51.9531 112.37C52.5 112.917 52.5 114.011 51.9531 114.558C51.6797 114.831 51.1328 115.104 50.8594 115.104ZM50.8594 51.6855C50.3125 51.6855 50.0391 51.6855 49.4922 51.4121L37.7344 39.3842L25.9766 51.4121C25.4297 51.6855 25.1562 51.6855 24.6094 51.6855C24.3359 51.6855 23.7891 51.6855 23.5156 51.4121C22.9688 50.5918 22.9688 49.7714 23.5156 48.9511L35.5469 37.1967L23.5156 25.1688C22.9688 24.6219 22.9688 23.5299 23.5156 22.983C24.0625 22.4361 25.1562 22.4361 25.9766 22.983L37.7344 34.7374L49.4922 22.983C50.3125 22.4361 51.4062 22.4361 51.9531 22.983C52.5 23.5299 52.5 24.6219 51.9531 25.1688L39.9219 37.1967L51.9531 48.9511C52.5 49.7714 52.5 50.5918 51.9531 51.4121C51.6797 51.6855 51.1328 51.6855 50.8594 51.6855ZM59.3359 124.945H16.1328C13.125 124.945 10.9375 122.484 10.9375 119.478V80.6614C10.9375 77.9271 13.125 75.4678 16.1328 75.4678H59.3359C62.3438 75.4678 64.5312 77.9271 64.5312 80.6614V119.478C64.5312 122.484 62.3438 124.945 59.3359 124.945ZM16.1328 78.7474C15.0391 78.7474 14.2188 79.5677 14.2188 80.6614V119.478C14.2188 120.845 15.0391 121.665 16.1328 121.665H59.3359C60.4297 121.665 61.25 120.845 61.25 119.478V80.6614C61.25 79.5677 60.4297 78.7474 59.3359 78.7474H16.1328ZM122.5 61.7993H79.0234C76.2891 61.7993 73.8281 59.6118 73.8281 56.6057V17.7894C73.8281 14.7816 76.2891 12.3223 79.0234 12.3223H122.5C125.234 12.3223 127.695 14.7816 127.695 17.7894V56.6057C127.695 59.6118 125.234 61.7993 122.5 61.7993ZM79.0234 15.6019C77.9297 15.6019 77.1094 16.6956 77.1094 17.7894V56.6057C77.1094 57.6994 77.9297 58.5198 79.0234 58.5198H122.5C123.594 58.5198 124.414 57.6994 124.414 56.6057V17.7894C124.414 16.6956 123.594 15.6019 122.5 15.6019H79.0234ZM16.1328 15.6019C15.0391 15.6019 14.2188 16.6956 14.2188 17.7894V56.6057C14.2188 57.6994 15.0391 58.5198 16.1328 58.5198H59.3359C60.4297 58.5198 61.25 57.6994 61.25 56.6057V17.7894C61.25 16.6956 60.4297 15.6019 59.3359 15.6019H16.1328Z" fill="#368498"/>
</g>
<path fill-rule="evenodd" clip-rule="evenodd" d="M49.4922 51.4118L37.7344 39.3839L25.9766 51.4118C25.4297 51.6852 25.1562 51.6852 24.6094 51.6852C24.3359 51.6852 23.7891 51.6852 23.5156 51.4118C22.9688 50.5914 22.9688 49.7711 23.5156 48.9508L35.5469 37.1964L23.5156 25.1685C22.9688 24.6216 22.9688 23.5296 23.5156 22.9827C24.0625 22.4358 25.1562 22.4358 25.9766 22.9827L37.7344 34.7371L49.4922 22.9827C50.3125 22.4358 51.4062 22.4358 51.9531 22.9827C52.5 23.5296 52.5 24.6216 51.9531 25.1685L39.9219 37.1964L51.9531 48.9508C52.5 49.7711 52.5 50.5914 51.9531 51.4118C51.6797 51.6852 51.1328 51.6852 50.8594 51.6852C50.3125 51.6852 50.0391 51.6852 49.4922 51.4118ZM59.3359 15.6016H16.1328C15.0391 15.6016 14.2188 16.6953 14.2188 17.7891V56.6054C14.2188 57.6991 15.0391 58.5194 16.1328 58.5194H59.3359C60.4297 58.5194 61.25 57.6991 61.25 56.6054V17.7891C61.25 16.6953 60.4297 15.6016 59.3359 15.6016Z" fill="#F4A996"/>
<path fill-rule="evenodd" clip-rule="evenodd" d="M59.3359 78.7471H16.1328C15.0391 78.7471 14.2188 79.5674 14.2188 80.6611V119.477C14.2188 120.845 15.0391 121.665 16.1328 121.665H59.3359C60.4297 121.665 61.25 120.845 61.25 119.477V80.6611C61.25 79.5674 60.4297 78.7471 59.3359 78.7471ZM39.9219 100.342L51.9531 112.37C52.5 112.917 52.5 114.01 51.9531 114.557C51.6797 114.831 51.1328 115.104 50.8594 115.104C50.3125 115.104 50.0391 114.831 49.4922 114.557L37.7344 102.803L25.9766 114.557C25.4297 114.831 25.1562 115.104 24.6094 115.104C24.3359 115.104 23.7891 114.831 23.5156 114.557C22.9688 114.01 22.9688 112.917 23.5156 112.37L35.5469 100.342L23.5156 88.5874C22.9688 87.7671 22.9688 86.9485 23.5156 86.1282C24.0625 85.5813 25.1562 85.5813 25.9766 86.1282L37.7344 98.1561L49.4922 86.1282C50.3125 85.5813 51.4062 85.5813 51.9531 86.1282C52.5 86.9485 52.5 87.7671 51.9531 88.5874L39.9219 100.342Z" fill="#F4A996"/>
</svg>
