<svg width="82" height="82" viewBox="0 0 82 82" fill="none" xmlns="http://www.w3.org/2000/svg">
<path d="M41.0004 0.399902C18.5809 0.399902 0.400391 18.5804 0.400391 40.9999C0.400391 63.4194 18.5809 81.5999 41.0004 81.5999C63.4199 81.5999 81.6004 63.4194 81.6004 40.9999C81.6004 18.5804 63.4199 0.399902 41.0004 0.399902Z" fill="#56B48C"/>
<path d="M52.7179 44.5348C52.2921 43.4873 51.6371 42.5377 50.7864 41.6703C49.9357 40.803 48.8882 40.0345 47.6282 39.3629C48.9205 38.2831 49.919 37.1543 50.6063 36.0246C51.2935 34.8792 51.6538 33.5047 51.6538 31.9178C51.6538 30.7068 51.408 29.5614 50.9342 28.5139C50.4594 27.4664 49.7389 26.5335 48.8059 25.7317C47.8573 24.9299 46.7609 24.3249 45.4676 23.899C44.192 23.4732 42.7676 23.2607 41.2296 23.2607C39.4626 23.2607 37.8424 23.5065 36.419 24.0136C34.9946 24.5207 33.7836 25.1913 32.8183 26.0097C31.853 26.8448 31.1169 27.7121 30.6088 28.6285C30.1017 29.5448 29.8569 30.4288 29.8569 31.2462C29.8569 32.1136 30.1183 32.8008 30.6587 33.3246C31.1981 33.8483 31.7874 34.1107 32.4257 34.1107C32.9661 34.1107 33.44 34.0118 33.8658 33.816C34.275 33.6193 34.5697 33.3579 34.7332 33.0299C35.0112 32.4083 35.3059 31.7377 35.6329 31.0338C35.9608 30.3299 36.3044 29.7572 36.6804 29.3157C37.0406 28.8742 37.5477 28.5139 38.186 28.2359C38.8243 27.9569 39.6261 27.8267 40.5914 27.8267C42.0314 27.8267 43.1768 28.2682 44.0119 29.1522C44.8626 30.0352 45.2885 31.0994 45.2885 32.327C45.2885 33.9462 44.7647 35.1739 43.7006 36.0412C42.6374 36.9086 41.3765 37.3345 39.9041 37.3345H38.9222C37.7935 37.3345 36.9261 37.5635 36.3534 38.0374C35.7807 38.5122 35.486 39.1338 35.486 39.9033C35.486 40.6884 35.7308 41.2944 36.2056 41.7359C36.6804 42.1784 37.3676 42.3909 38.2516 42.3909C38.4474 42.3909 38.8733 42.3576 39.5439 42.293C40.2154 42.2274 40.7059 42.1941 41.0329 42.1941C42.8499 42.1941 44.2733 42.7178 45.3041 43.782C46.3193 44.8452 46.8431 46.3185 46.8431 48.1835C46.8431 49.4434 46.5484 50.5565 45.9424 51.5218C45.3374 52.488 44.5846 53.2075 43.6683 53.698C42.752 54.1895 41.7857 54.4352 40.8038 54.4352C39.0857 54.4352 37.7445 53.8948 36.7949 52.815C35.8463 51.7352 34.9456 50.0817 34.1272 47.8731C33.997 47.5129 33.7346 47.1859 33.3098 46.9235C32.9005 46.6621 32.458 46.5309 32.0165 46.5309C31.1168 46.5309 30.3797 46.809 29.7747 47.3817C29.1687 47.9544 28.875 48.6906 28.875 49.6235C28.875 50.344 29.1197 51.2604 29.6269 52.3568C30.1349 53.4533 30.8711 54.5331 31.853 55.5639C32.8349 56.5948 34.0782 57.4455 35.6006 58.1328C37.1219 58.821 38.841 59.1646 40.7548 59.1646C42.6374 59.1646 44.3555 58.8699 45.9258 58.2639C47.497 57.6589 48.8226 56.8405 49.968 55.7764C51.0977 54.7132 51.9651 53.5022 52.5378 52.1434C53.1261 50.7856 53.4051 49.3788 53.4051 47.9221C53.3552 46.7111 53.1428 45.5813 52.7179 44.5348Z" fill="white"/>
</svg>
