<svg width="138" height="138" viewBox="0 0 138 138" fill="none" xmlns="http://www.w3.org/2000/svg">
<path d="M114.669 48.4473H23.3352C18.2958 48.4473 14.2012 52.5336 14.2012 57.5813V121.514H123.802V57.5813C123.802 52.5336 119.716 48.4473 114.669 48.4473Z" fill="white"/>
<path d="M64.4348 105.531C46.7846 105.531 32.4692 91.2152 32.4692 73.5649V48.4473H23.3352C18.2958 48.4473 14.2012 52.5336 14.2012 57.5813V121.514H123.802V105.531H64.4348Z" fill="#CBE889"/>
<path d="M84.9872 116.947V121.514H53.0198V116.947H2.78613V126.081C2.78613 131.121 6.88074 135.215 11.9201 135.215H126.087C131.135 135.215 135.221 131.121 135.221 126.081V116.947H84.9872Z" fill="#A6DE99"/>
<path d="M123.801 75.8522C123.801 78.376 121.758 80.4192 119.234 80.4192C116.71 80.4192 114.667 78.376 114.667 75.8522C114.667 73.3283 116.71 71.2852 119.234 71.2852C121.758 71.2852 123.801 73.3283 123.801 75.8522Z" fill="#A6DE99"/>
<path d="M112.384 57.5851C112.384 60.1089 110.341 62.1521 107.817 62.1521C105.293 62.1521 103.25 60.1089 103.25 57.5851C103.25 55.0612 105.293 53.0181 107.817 53.0181C110.341 53.0181 112.384 55.0612 112.384 57.5851Z" fill="#A6DE99"/>
<path d="M135.217 37.0302C135.217 39.5557 133.174 41.5972 130.65 41.5972C128.126 41.5972 126.083 39.5557 126.083 37.0302C126.083 34.5064 128.126 32.4648 130.65 32.4648C133.174 32.4648 135.217 34.5064 135.217 37.0302Z" fill="#A6DE99"/>
<path d="M119.237 23.3351C119.237 25.8589 117.193 27.9021 114.67 27.9021C112.146 27.9021 110.103 25.8589 110.103 23.3351C110.103 20.8112 112.146 18.7681 114.67 18.7681C117.193 18.7681 119.237 20.8112 119.237 23.3351Z" fill="#A6DE99"/>
<path d="M18.7617 87.2643C18.7617 89.7881 20.8049 91.8313 23.3287 91.8313C25.8525 91.8313 27.8957 89.7881 27.8957 87.2643C27.8957 84.7404 25.8525 82.6973 23.3287 82.6973C20.8049 82.6973 18.7617 84.7404 18.7617 87.2643Z" fill="#A6DE99"/>
<path d="M21.0488 7.35216C21.0488 9.87598 23.0904 11.9192 25.6142 11.9192C28.1396 11.9192 30.1812 9.87598 30.1812 7.35216C30.1812 4.82833 28.1396 2.78516 25.6142 2.78516C23.0904 2.78516 21.0488 4.82833 21.0488 7.35216Z" fill="#A6DE99"/>
<path d="M2.78613 41.6022C2.78613 44.126 4.82931 46.1692 7.35313 46.1692C9.87696 46.1692 11.9201 44.126 11.9201 41.6022C11.9201 39.0783 9.87696 37.0352 7.35313 37.0352C4.82931 37.0352 2.78613 39.0783 2.78613 41.6022Z" fill="#A6DE99"/>
<path d="M14.2012 69.0011C14.2012 71.5249 16.2443 73.5681 18.7682 73.5681C21.292 73.5681 23.3352 71.5249 23.3352 69.0011C23.3352 66.4773 21.292 64.4341 18.7682 64.4341C16.2443 64.4341 14.2012 66.4773 14.2012 69.0011Z" fill="#A6DE99"/>
<path d="M89.551 14.1967C89.551 16.7222 87.5078 18.7637 84.984 18.7637C82.4602 18.7637 80.417 16.7222 80.417 14.1967C80.417 11.6729 82.4602 9.63135 84.984 9.63135C87.5078 9.63135 89.551 11.6729 89.551 14.1967Z" fill="#A6DE99"/>
<path d="M57.583 7.35216C57.583 9.87598 59.6262 11.9192 62.15 11.9192C64.6738 11.9192 66.717 9.87598 66.717 7.35216C66.717 4.82833 64.6738 2.78516 62.15 2.78516C59.6262 2.78516 57.583 4.82833 57.583 7.35216Z" fill="#A6DE99"/>
<path d="M39.3223 16.4835C39.3223 19.0073 41.3638 21.0505 43.8893 21.0505C46.4131 21.0505 48.4546 19.0073 48.4546 16.4835C48.4546 13.9597 46.4131 11.9165 43.8893 11.9165C41.3638 11.9165 39.3223 13.9597 39.3223 16.4835Z" fill="#A6DE99"/>
<path d="M82.7039 71.2827H55.3053C52.7798 71.2827 50.7383 69.2411 50.7383 66.7173V39.317C50.7383 36.7932 52.7798 34.75 55.3053 34.75H82.7039C85.2294 34.75 87.2709 36.7932 87.2709 39.317V66.7173C87.2709 69.2411 85.2294 71.2827 82.7039 71.2827Z" fill="#75C591"/>
<path d="M132.933 126.083C132.933 129.866 129.866 132.933 126.083 132.933H11.9167C8.13424 132.933 5.067 129.866 5.067 126.083V119.234H50.7337V121.516C50.7337 122.775 51.7594 123.801 53.0163 123.801H84.9837C86.2406 123.801 87.2663 122.775 87.2663 121.516V119.234H132.933V126.083ZM25.616 87.2663C25.616 88.5249 24.5903 89.5507 23.3333 89.5507C22.0764 89.5507 21.0507 88.5249 21.0507 87.2663C21.0507 86.0094 22.0764 84.9837 23.3333 84.9837C24.5903 84.9837 25.616 86.0094 25.616 87.2663ZM16.4837 75.4301C17.1972 75.6812 17.9636 75.8497 18.7663 75.8497C21.7361 75.8497 24.2517 73.932 25.1981 71.2827H32.4673C33.4039 71.2827 34.2413 70.7128 34.5898 69.8473L38.577 59.866H48.4493V64.433H41.5997C40.5294 64.433 39.6027 65.173 39.3699 66.2169L35.2042 84.9837H29.7635C28.8187 82.3343 26.3031 80.4167 23.3333 80.4167C19.5509 80.4167 16.4837 83.4855 16.4837 87.2663C16.4837 91.0488 19.5509 94.116 23.3333 94.116C26.3031 94.116 28.8187 92.1984 29.7635 89.5507H37.0327C38.103 89.5507 39.0312 88.809 39.2625 87.7668L43.4281 69H48.8689C49.8153 71.6494 52.3292 73.567 55.3007 73.567H82.6993C85.6708 73.567 88.1847 71.6494 89.1311 69H95.259L101.422 77.2239C101.859 77.7937 102.528 78.134 103.25 78.134H112.802C113.748 80.7817 116.264 82.6993 119.234 82.6993C120.036 82.6993 120.795 82.5309 121.516 82.2815V114.667H84.9837C83.7251 114.667 82.6993 115.692 82.6993 116.949V119.234H55.3007V116.949C55.3007 115.692 54.2749 114.667 53.0163 114.667H16.4837V75.4301ZM21.0507 69C21.0507 70.257 20.0249 71.2827 18.7663 71.2827C17.5094 71.2827 16.4837 70.257 16.4837 69C16.4837 67.743 17.5094 66.7173 18.7663 66.7173C20.0249 66.7173 21.0507 67.743 21.0507 69ZM23.3333 50.7337H48.4493V55.3007H37.0327C36.0961 55.3007 35.2587 55.8705 34.9102 56.736L30.923 66.7173H25.1981C24.2517 64.068 21.7361 62.1503 18.7663 62.1503C17.9636 62.1503 17.1972 62.3188 16.4837 62.5699V57.5833C16.4837 53.8009 19.5509 50.7337 23.3333 50.7337ZM55.3007 37.0327H82.6993C83.9579 37.0327 84.9837 38.0584 84.9837 39.317V66.7173C84.9837 67.9743 83.9579 69 82.6993 69H55.3007C54.042 69 53.0163 67.9743 53.0163 66.7173V39.317C53.0163 38.0584 54.042 37.0327 55.3007 37.0327ZM105.533 57.5833C105.533 56.3264 106.558 55.3007 107.817 55.3007C109.074 55.3007 110.1 56.3264 110.1 57.5833C110.1 58.8403 109.074 59.866 107.817 59.866C106.558 59.866 105.533 58.8403 105.533 57.5833ZM121.516 75.8497C121.516 77.1083 120.491 78.134 119.234 78.134C117.975 78.134 116.949 77.1083 116.949 75.8497C116.949 74.5927 117.975 73.567 119.234 73.567C120.491 73.567 121.516 74.5927 121.516 75.8497ZM114.667 50.7337C118.449 50.7337 121.516 53.8009 121.516 57.5833V69.4195C120.795 69.1701 120.036 69 119.234 69C116.264 69 113.748 70.9176 112.802 73.567H104.391L98.2288 65.3431C97.7911 64.7716 97.1221 64.433 96.4003 64.433H89.5507V59.866H101.385C102.332 62.5154 104.847 64.433 107.817 64.433C111.598 64.433 114.667 61.3658 114.667 57.5833C114.667 53.8009 111.598 50.7337 107.817 50.7337C104.847 50.7337 102.332 52.6513 101.385 55.3007H89.5507V50.7337H114.667ZM7.34967 43.884C6.09271 43.884 5.067 42.8583 5.067 41.5997C5.067 40.3427 6.09271 39.317 7.34967 39.317C8.60828 39.317 9.63399 40.3427 9.63399 41.5997C9.63399 42.8583 8.60828 43.884 7.34967 43.884ZM25.616 5.067C26.8746 5.067 27.9003 6.09271 27.9003 7.34967C27.9003 8.60828 26.8746 9.63399 25.616 9.63399C24.359 9.63399 23.3333 8.60828 23.3333 7.34967C23.3333 6.09271 24.359 5.067 25.616 5.067ZM43.884 14.1993C45.1409 14.1993 46.1667 15.2251 46.1667 16.4837C46.1667 17.7406 45.1409 18.7663 43.884 18.7663C42.6254 18.7663 41.5997 17.7406 41.5997 16.4837C41.5997 15.2251 42.6254 14.1993 43.884 14.1993ZM62.1503 5.067C63.4073 5.067 64.433 6.09271 64.433 7.34967C64.433 8.60828 63.4073 9.63399 62.1503 9.63399C60.8917 9.63399 59.866 8.60828 59.866 7.34967C59.866 6.09271 60.8917 5.067 62.1503 5.067ZM84.9837 11.9167C86.2406 11.9167 87.2663 12.9424 87.2663 14.1993C87.2663 15.4579 86.2406 16.4837 84.9837 16.4837C83.7251 16.4837 82.6993 15.4579 82.6993 14.1993C82.6993 12.9424 83.7251 11.9167 84.9837 11.9167ZM114.667 21.0507C115.924 21.0507 116.949 22.0764 116.949 23.3333C116.949 24.5903 115.924 25.616 114.667 25.616C113.41 25.616 112.384 24.5903 112.384 23.3333C112.384 22.0764 113.41 21.0507 114.667 21.0507ZM130.65 34.75C131.907 34.75 132.933 35.7757 132.933 37.0327C132.933 38.2913 131.907 39.317 130.65 39.317C129.392 39.317 128.366 38.2913 128.366 37.0327C128.366 35.7757 129.392 34.75 130.65 34.75ZM135.217 114.667H126.083V57.5833C126.083 51.287 120.963 46.1667 114.667 46.1667H102.715L106.826 39.317H124.219C125.165 41.9664 127.681 43.884 130.65 43.884C134.431 43.884 137.5 40.8151 137.5 37.0327C137.5 33.2519 134.431 30.183 130.65 30.183C127.681 30.183 125.165 32.1006 124.219 34.75H105.533C104.73 34.75 103.99 35.1695 103.58 35.8566L97.3897 46.1667H89.5507V41.5997H94.116C95.036 41.5997 95.8553 41.0563 96.212 40.2172L102.474 25.616H108.237C109.181 28.2654 111.697 30.183 114.667 30.183C118.449 30.183 121.516 27.1158 121.516 23.3333C121.516 19.5509 118.449 16.4837 114.667 16.4837C111.697 16.4837 109.181 18.4013 108.237 21.0507H100.967C100.047 21.0507 99.2281 21.5941 98.8713 22.4331L92.6096 37.0327H89.1311C88.1847 34.385 85.6708 32.4673 82.6993 32.4673V31.1294L86.5974 27.2314C87.0252 26.8036 87.2663 26.2238 87.2663 25.616V20.6311C89.9157 19.6847 91.8333 17.1708 91.8333 14.1993C91.8333 10.4186 88.7644 7.34967 84.9837 7.34967C81.2012 7.34967 78.134 10.4186 78.134 14.1993C78.134 17.1708 80.0516 19.6847 82.6993 20.6311V24.6712L78.8029 28.5693C78.3735 28.9971 78.134 29.5768 78.134 30.183V32.4673H71.2827V25.616C71.2827 24.6349 70.6501 23.7611 69.7218 23.449L64.433 21.6915V13.7815C67.0824 12.835 69 10.3195 69 7.34967C69 3.56889 65.9311 0.5 62.1503 0.5C58.3679 0.5 55.3007 3.56889 55.3007 7.34967C55.3007 10.3195 57.2183 12.835 59.866 13.7815V23.3333C59.866 24.3145 60.5003 25.1882 61.4269 25.5004L66.7173 27.2578V32.4673H59.8313C59.8313 31.62 59.3854 30.8173 58.609 30.4242L46.1667 24.2071V22.9138C48.816 21.969 50.7337 19.4534 50.7337 16.4837C50.7337 12.7012 47.6648 9.63399 43.884 9.63399C40.1016 9.63399 37.0327 12.7012 37.0327 16.4837C37.0327 19.4534 38.9503 21.969 41.5997 22.9138V25.616C41.5997 26.4815 42.0902 27.276 42.8583 27.6592L53.2046 32.8324C51.1796 33.4831 49.5824 35.0357 48.8689 37.0327H37.5331L9.63399 24.1542V9.63399H19.1859C20.1307 12.2817 22.6462 14.1993 25.616 14.1993C29.3984 14.1993 32.4673 11.1321 32.4673 7.34967C32.4673 3.56889 29.3984 0.5 25.616 0.5C22.6462 0.5 20.1307 2.41764 19.1859 5.067H7.34967C6.09271 5.067 5.067 6.09271 5.067 7.34967V25.616C5.067 26.5079 5.58398 27.3206 6.39498 27.6856L36.0796 41.3866C36.3736 41.5286 36.704 41.5997 37.0327 41.5997H48.4493V46.1667H28.8005L22.1656 39.9314C21.746 39.54 21.1844 39.317 20.6047 39.317H13.7815C12.835 36.6676 10.3195 34.75 7.34967 34.75C3.56889 34.75 0.5 37.8189 0.5 41.5997C0.5 45.3821 3.56889 48.4493 7.34967 48.4493C10.3195 48.4493 12.835 46.5317 13.7815 43.884H19.7029L22.2548 46.274C16.4655 46.8274 11.9167 51.6603 11.9167 57.5833V114.667H2.78267C1.52572 114.667 0.5 115.692 0.5 116.949V126.083C0.5 132.38 5.62032 137.5 11.9167 137.5H126.083C132.38 137.5 137.5 132.38 137.5 126.083V116.949C137.5 115.692 136.474 114.667 135.217 114.667Z" fill="#418786"/>
<path d="M112.387 128.368C113.644 128.368 114.67 127.342 114.67 126.085C114.67 124.828 113.644 123.803 112.387 123.803C111.128 123.803 110.103 124.828 110.103 126.085C110.103 127.342 111.128 128.368 112.387 128.368Z" fill="#418786"/>
<path d="M123.796 128.368C125.053 128.368 126.079 127.342 126.079 126.085C126.079 124.828 125.053 123.803 123.796 123.803C122.537 123.803 121.512 124.828 121.512 126.085C121.512 127.342 122.537 128.368 123.796 128.368Z" fill="#418786"/>
<path d="M14.1997 123.803C12.9427 123.803 11.917 124.828 11.917 126.085C11.917 127.342 12.9427 128.368 14.1997 128.368C15.4583 128.368 16.484 127.342 16.484 126.085C16.484 124.828 15.4583 123.803 14.1997 123.803Z" fill="#418786"/>
<path d="M25.6157 123.803C24.3587 123.803 23.333 124.828 23.333 126.085C23.333 127.342 24.3587 128.368 25.6157 128.368C26.8743 128.368 27.9 127.342 27.9 126.085C27.9 124.828 26.8743 123.803 25.6157 123.803Z" fill="#418786"/>
<path d="M64.4327 48.4467C65.6913 48.4467 66.717 49.4724 66.717 50.731V53.0137H62.15V50.731C62.15 49.4724 63.1757 48.4467 64.4327 48.4467ZM59.8657 62.1477C61.1243 62.1477 62.15 61.122 62.15 59.8634V57.5807H66.717V59.8634C66.717 61.122 67.7427 62.1477 68.9997 62.1477C70.2566 62.1477 71.2823 61.122 71.2823 59.8634V50.731C71.2823 46.9486 68.2151 43.8813 64.4327 43.8813C60.6519 43.8813 57.583 46.9486 57.583 50.731V59.8634C57.583 61.122 58.6087 62.1477 59.8657 62.1477Z" fill="#418786"/>
<path d="M78.1369 62.1477C79.3938 62.1477 80.4195 61.122 80.4195 59.8634V46.164C80.4195 44.9071 79.3938 43.8813 78.1369 43.8813C76.8783 43.8813 75.8525 44.9071 75.8525 46.164V59.8634C75.8525 61.122 76.8783 62.1477 78.1369 62.1477Z" fill="#418786"/>
<path d="M57.5812 107.817C58.1692 107.817 58.7489 107.594 59.1949 107.148C60.0868 106.256 60.0868 104.811 59.1949 103.919L49.3936 94.1158L59.1949 84.3146C60.0868 83.4226 60.0868 81.9774 59.1949 81.0854C58.303 80.1935 56.8594 80.1935 55.9674 81.0854L44.5508 92.5021C43.6589 93.394 43.6589 94.8393 44.5508 95.7312L55.9674 107.148C56.4134 107.594 56.9932 107.817 57.5812 107.817Z" fill="#418786"/>
<path d="M65.8642 107.656C66.14 107.762 66.4258 107.816 66.7115 107.816C67.6199 107.816 68.4772 107.271 68.834 106.379L77.9663 83.5458C78.4304 82.378 77.8606 81.0484 76.6912 80.576C75.5317 80.1118 74.1938 80.6751 73.7214 81.8511L64.5874 104.684C64.1249 105.854 64.6948 107.182 65.8642 107.656Z" fill="#418786"/>
<path d="M83.3701 107.148C83.8161 107.594 84.3958 107.817 84.9855 107.817C85.5735 107.817 86.1533 107.594 86.5992 107.148L98.0159 95.7312C98.9078 94.8393 98.9078 93.394 98.0159 92.5021L86.5992 81.0854C85.7073 80.1935 84.262 80.1935 83.3701 81.0854C82.4782 81.9774 82.4782 83.4226 83.3701 84.3146L93.1731 94.1158L83.3701 103.919C82.4782 104.811 82.4782 106.256 83.3701 107.148Z" fill="#418786"/>
<path d="M103.247 110.102H114.663C115.92 110.102 116.946 109.076 116.946 107.819C116.946 106.561 115.92 105.535 114.663 105.535H103.247C101.99 105.535 100.964 106.561 100.964 107.819C100.964 109.076 101.99 110.102 103.247 110.102Z" fill="#418786"/>
<path d="M110.105 100.966H114.672C115.929 100.966 116.955 99.9407 116.955 98.6821C116.955 97.4251 115.929 96.3994 114.672 96.3994H110.105C108.848 96.3994 107.822 97.4251 107.822 98.6821C107.822 99.9407 108.848 100.966 110.105 100.966Z" fill="#418786"/>
<path d="M34.7482 105.535H23.3315C22.0745 105.535 21.0488 106.561 21.0488 107.819C21.0488 109.076 22.0745 110.102 23.3315 110.102H34.7482C36.0051 110.102 37.0308 109.076 37.0308 107.819C37.0308 106.561 36.0051 105.535 34.7482 105.535Z" fill="#418786"/>
<path d="M34.7471 96.3994H30.1801C28.9232 96.3994 27.8975 97.4251 27.8975 98.6821C27.8975 99.9407 28.9232 100.966 30.1801 100.966H34.7471C36.0041 100.966 37.0298 99.9407 37.0298 98.6821C37.0298 97.4251 36.0041 96.3994 34.7471 96.3994Z" fill="#418786"/>
</svg>
