<svg width="82" height="82" viewBox="0 0 82 82" fill="none" xmlns="http://www.w3.org/2000/svg">
<path d="M41.0004 0.399902C18.5809 0.399902 0.400391 18.5804 0.400391 40.9999C0.400391 63.4194 18.5809 81.5999 41.0004 81.5999C63.4199 81.5999 81.6004 63.4194 81.6004 40.9999C81.6004 18.5804 63.4199 0.399902 41.0004 0.399902Z" fill="#56B48C"/>
<path d="M53.584 46.2042C52.8478 45.8605 51.8502 45.6961 50.6226 45.6961H49.5917V27.1553C49.5917 24.374 48.3807 22.9829 45.9421 22.9829C45.1893 22.9829 44.551 23.2286 44.0116 23.7357C43.4712 24.2428 42.8006 25.0446 41.9655 26.1734L29.2672 43.1762C28.9236 43.6344 28.6123 44.0269 28.3832 44.3549C28.1375 44.6819 27.9084 45.0088 27.696 45.3525C27.4669 45.6961 27.3034 46.024 27.1889 46.3344C27.0743 46.6457 27.0254 46.957 27.0254 47.2507C27.0254 48.4294 27.4013 49.3623 28.1708 50.0496C28.9236 50.7368 30.069 51.0804 31.5903 51.0804H43.619V55.5318C43.619 56.7262 43.897 57.6425 44.4531 58.2475C45.0091 58.8535 45.7297 59.1648 46.6293 59.1648C47.5457 59.1648 48.2662 58.8701 48.8056 58.2641C49.346 57.6591 49.624 56.7428 49.624 55.5152V51.0638H51.0807C52.2917 51.0638 53.208 50.8514 53.8131 50.4255C54.419 50.0006 54.7303 49.3291 54.7303 48.3971C54.6971 47.284 54.3211 46.5478 53.584 46.2042ZM43.6024 45.6961H33.2928L43.6024 31.7702V45.6961Z" fill="white"/>
</svg>
